<svg xmlns="http://www.w3.org/2000/svg" viewBox="0 0 428.10703 403.59999" width="428.107" height="403.6"><path d="M423.7 235.9c-7.2-9.5-14.4-13.8-23.6-13.8-8.6 0-19.4 3.7-36 12.4l-60.8 37.4c-6.2 3.6-20.4 5.8-40.2 6 1.8-6.4-.2-13.9-5.9-22.2-11.8-17-31.6-27.2-52.8-27.2h-27.5c-14.7 0-28.1-4.2-38.7-12.2-7.3-5.5-16.2-8.2-26.5-8.2-20.1 0-41.6 10.3-57.2 19.8v-12.8H0v188.5h54.4v-21.2h89.2c9.6 0 19.6-.7 29.2-1.3 4.6-.3 9.4-.6 13.9-.8h.1l91.7-14.1c3.9 0 7.7-.8 10.2-1.5 8.5-1.4 16.7-5.6 24.4-12.5l106.5-84.7c9.5-7.7 11.3-21.9 4.1-31.6zM19.1 384.6V234.3h16.2v150.3zm226-109.4c-.9 1.2-4.5 3.2-17.6 4.3H223c-1.2-.5-2.5-.7-3.9-.7h-68.4c-23.3 0-37.8 11.8-37.8 30.7 0 5.6 3.9 9.5 9.6 9.5 5.7 0 9.6-3.9 9.6-9.5 0-3.5 0-11.6 18.7-11.6h65.9v.7H232c6.5.1 12.2.2 17.3.2 32.6 0 52.5-2.8 64.3-9l60.7-37.4c13.6-6.8 21.8-9.8 26.6-9.8 3.9 0 5.4 2 8.2 6.2.7 1 .9 3.8-.9 5.1L301 337.2l-.9.9-.1.1c-3.7 4.3-8.8 7-14.6 7.6l-.3.1c-2.5.6-4.4.6-7.2.6h-.2l-93.4 14.1c-11.7 1.9-25.3 2.8-40.5 2.8H54.4V250.8c7.6-5.2 34.9-23.1 56.6-23.1 6.3 0 11.6 1.6 15.6 4.8 14.2 10.5 31.6 16 50.2 16h27.5c15.8 0 29.7 7.1 38.1 19.4 2.3 3.3 2.8 6.4 2.7 7.3zM99.7 0v201.1h271.1V0zm251.9 19.2v162.7H118.9V19.2z" fill="#d1688f"/><g fill="#734b97"><path d="M328.2 59.8c-2.6-5.2-6-9.3-10.2-12.2-4.2-2.9-9.4-4.8-15.4-5.8-4.3-.8-10.2-1.1-18.2-1.1h-46.5v83h-7.2v18.8h7.2v19.7h20.4v-19.7h38.6v-18.8h-38.6v-9h27.4c17.2 0 29.3-3.7 36.1-11.1 6.7-7.3 10.1-16.3 10.1-26.8.1-6.2-1.2-11.9-3.7-17zM305.6 91c-3.7 3.3-10.3 4.9-19.6 4.9h-27.6V59.2h27.3c8.3 0 12 .5 13.7 1 3.5 1 6.2 2.9 8.4 5.9 2.2 3.1 3.2 6.7 3.2 11.1 0 6.1-1.8 10.6-5.4 13.8zM214.9 54.1c-3.3-5-7.4-8.9-12.4-11.6-5-2.7-10.8-4-17.4-4-8.9 0-16.4 2.4-22.3 7.2-5.8 4.7-10.3 11.6-13.2 20.3-2.9 8.5-4.3 19.8-4.3 33.5 0 22 4 38.2 11.9 48.2 6.7 8.4 16.1 12.7 27.9 12.7 8.9 0 16.5-2.5 22.4-7.3 5.8-4.8 10.3-11.6 13.2-20.3 2.8-8.5 4.3-19.8 4.3-33.4 0-11.6-.9-20.9-2.7-27.7-1.8-6.7-4.3-12.7-7.4-17.6zm-9.4 45.5c0 18.2-2.1 30.4-6.1 36.1-4 5.6-8.6 8.3-14.3 8.3-5.7 0-10.3-2.7-14.3-8.2-4.1-5.7-6.1-17.9-6.1-36.1 0-18.2 2.3-30.8 6.8-37.2 3.4-4.8 7.8-7.2 13.5-7.2 5.8 0 10.5 2.7 14.4 8.3 4 5.6 6.1 17.7 6.1 36z"/></g></svg>