<?xml version="1.0" encoding="UTF-8" standalone="no"?>
<!-- Generator: Adobe Illustrator 17.1.0, SVG Export Plug-In . SVG Version: 6.00 Build 0)  -->

<svg
   xmlns:dc="http://purl.org/dc/elements/1.1/"
   xmlns:cc="http://creativecommons.org/ns#"
   xmlns:rdf="http://www.w3.org/1999/02/22-rdf-syntax-ns#"
   xmlns:svg="http://www.w3.org/2000/svg"
   xmlns="http://www.w3.org/2000/svg"
   xmlns:sodipodi="http://sodipodi.sourceforge.net/DTD/sodipodi-0.dtd"
   xmlns:inkscape="http://www.inkscape.org/namespaces/inkscape"
   version="1.1"
   id="Layer_1"
   x="0px"
   y="0px"
   viewBox="0 0 512.04749 511.89999"
   enable-background="new 0 0 512 512"
   xml:space="preserve"
   sodipodi:docname="baloons.svg"
   width="512.04749"
   height="511.89999"
   inkscape:version="0.92.1 r15371"><metadata
     id="metadata6843"><rdf:RDF><cc:Work
         rdf:about=""><dc:format>image/svg+xml</dc:format><dc:type
           rdf:resource="http://purl.org/dc/dcmitype/StillImage" /><dc:title></dc:title></cc:Work></rdf:RDF></metadata><defs
     id="defs6841" /><sodipodi:namedview
     pagecolor="#ffffff"
     bordercolor="#666666"
     borderopacity="1"
     objecttolerance="10"
     gridtolerance="10"
     guidetolerance="10"
     inkscape:pageopacity="0"
     inkscape:pageshadow="2"
     inkscape:window-width="640"
     inkscape:window-height="480"
     id="namedview6839"
     showgrid="false"
     fit-margin-top="0"
     fit-margin-left="0"
     fit-margin-right="0"
     fit-margin-bottom="0"
     inkscape:pagecheckerboard="true"
     inkscape:zoom="0.4609375"
     inkscape:cx="256.04988"
     inkscape:cy="255.9"
     inkscape:window-x="198"
     inkscape:window-y="82"
     inkscape:window-maximized="0"
     inkscape:current-layer="Layer_1" /><path
     d="m 265.24988,216 c 1.9,4.3 6.9,6.3 11.3,4.3 4.4,-2 6.3,-6.9 4.3,-11.3 -8,-18.2 -23.9,-29.9 -48.5,-29.9 -4.7,0 -8.5,3.8 -8.5,8.5 0,4.7 3.8,8.5 8.5,8.5 17.4,0.2 27.5,7.6 32.9,19.9 z"
     id="path6832"
     inkscape:connector-curvature="0"
     style="fill:#933ec5" /><path
     d="m 401.94988,0 c -42.1,0 -75.4,21 -94.7,56.3 -19.3,-35.3 -52.6,-56.3 -94.7,-56.3 -76.3,0 -121.700005,69.1 -107.6,146.5 -5.400005,-0.9 -11.000005,-1.4 -16.900005,-1.4 -86.5999999,0 -117.5,103.1 -55.4,171.6 7.8,8.7 23.9,24.9 60.3,61.2 25.800005,25.8 34.300005,34.2 42.700005,42.7 l -7.4,29.5 c -1.3,5.4 2.7,10.6 8.3,10.6 h 17.1 v 42.7 c 0,4.7 3.8,8.5 8.5,8.5 4.7,0 8.5,-3.8 8.5,-8.5 v -42.7 h 17.1 c 5.6,0 9.6,-5.2 8.3,-10.6 l -7.4,-29.5 c 8.4,-8.5 16.8,-16.9 42.4,-42.5 10.5,-10.5 19.3,-19.3 26.7,-26.7 7.3,8.3 17.6,20.2 23,26.3 l -7.4,29.8 c -1.3,5.4 2.7,10.6 8.3,10.6 h 17.1 v 85.3 c 0,4.7 3.8,8.5 8.5,8.5 4.7,0 8.5,-3.8 8.5,-8.5 v -85.3 h 17.1 c 5.6,0 9.6,-5.2 8.3,-10.6 l -7.4,-29.6 c 39.8,-42.8 118.3,-129.2 137.4,-151.4 77.7,-90.7 39.2,-226.5 -69.2,-226.5 z m -254.4,443.7 4.3,-17.1 h 20.8 l 4.3,17.1 z m 71.8,-77.8 c -26.8,26.7 -34.9,34.8 -43.6,43.7 h -27 c -8.8,-8.9 -16.9,-17 -43.4,-43.5 -36.300005,-36.2 -52.400005,-52.5 -59.900005,-60.8 -52.9999999,-58.5 -27.6,-143.1 42.7,-143.1 8.7,0 16.800005,1.2 24.200005,3.6 0.4,0.2 0.9,0.5 1.3,0.6 17.5,6 30.9,18.6 38.9,36 0.1,0.3 0.3,0.6 0.4,0.8 0.4,0.9 0.8,1.9 1.2,2.8 0.1,0.1 0.1,0.3 0.2,0.4 1.4,3.6 4.7,5.4 7.9,5.4 3.3,0 6.5,-1.8 7.9,-5.4 8.2,-20.7 23,-35 43.1,-41.1 7.1,-2.1 14.8,-3.2 23.1,-3.2 39.9,0 65.3,27.3 70.2,61.6 3.7,26.1 -4.6,56.3 -27.5,81.5 -0.1,0.1 -0.2,0.3 -0.4,0.4 -4.2,4.5 -24.9,25.7 -26.7,27.5 0,0 0,0 0,0 -8.5,8.6 -19.2,19.3 -32.6,32.8 z m 73.2,35.1 4.3,-17.1 h 20.8 l 4.3,17.1 z m 28,-34.1 h -26.6 c -5.2,-5.9 -16.3,-18.8 -24.1,-27.6 10.7,-10.8 17.3,-17.7 21.5,-22.3 0.1,-0.1 0.2,-0.2 0.3,-0.3 24.6,-27.2 34.6,-59.8 32.3,-89.2 -3.5,-44.9 -35.4,-82.4 -87.7,-82.4 0,0 0,0 0,0 0,0 0,0 0,0 -9,0 -17.5,1.1 -25.4,3.2 -0.2,0 -0.3,0.1 -0.5,0.1 -0.6,0.2 -1.1,0.3 -1.7,0.5 -0.3,0.1 -0.6,0.2 -1,0.3 -0.4,0.1 -0.7,0.2 -1.1,0.4 -0.5,0.2 -1,0.3 -1.5,0.5 -0.2,0.1 -0.3,0.1 -0.5,0.2 -0.7,0.2 -1.4,0.5 -2.1,0.8 0,0 0,0 0,0 -16.9,6.4 -30.7,17.9 -40.4,33.4 -9.4,-15 -22.6,-26.2 -38.7,-32.7 -17.2,-71 21.9,-134.5 89.1,-134.5 41.2,0 72,23.4 86.7,62.7 2.8,7.4 13.2,7.4 16,0 14.7,-39.4 45.5,-62.7 86.7,-62.7 92.1,0 125.4,117.6 56.2,198.2 -18.9,22 -98,109 -137.5,151.4 z"
     id="path6834"
     inkscape:connector-curvature="0"
     style="fill:#933ec5" /><path
     d="m 392.54988,34.2 c -4.7,0 -8.5,3.8 -8.5,8.5 0,4.7 3.8,8.5 8.5,8.5 27.1,0 43.2,10.8 51.6,29.2 2,4.3 7,6.2 11.3,4.2 4.3,-2 6.2,-7 4.2,-11.3 -11.2,-24.3 -33.2,-39.1 -67.1,-39.1 z"
     id="path6836"
     inkscape:connector-curvature="0"
     style="fill:#933ec5" /></svg>