<?xml version="1.0" encoding="UTF-8" standalone="no"?>
<!-- Generator: Adobe Illustrator 17.1.0, SVG Export Plug-In . SVG Version: 6.00 Build 0)  -->

<svg
   xmlns:dc="http://purl.org/dc/elements/1.1/"
   xmlns:cc="http://creativecommons.org/ns#"
   xmlns:rdf="http://www.w3.org/1999/02/22-rdf-syntax-ns#"
   xmlns:svg="http://www.w3.org/2000/svg"
   xmlns="http://www.w3.org/2000/svg"
   xmlns:sodipodi="http://sodipodi.sourceforge.net/DTD/sodipodi-0.dtd"
   xmlns:inkscape="http://www.inkscape.org/namespaces/inkscape"
   version="1.1"
   id="Capa_1"
   x="0px"
   y="0px"
   viewBox="0 0 595.3 325.49999"
   enable-background="new 0 0 595.3 841.9"
   xml:space="preserve"
   sodipodi:docname="car.svg"
   width="595.29999"
   height="325.5"
   inkscape:version="0.92.1 r15371"><metadata
     id="metadata5493"><rdf:RDF><cc:Work
         rdf:about=""><dc:format>image/svg+xml</dc:format><dc:type
           rdf:resource="http://purl.org/dc/dcmitype/StillImage" /><dc:title></dc:title></cc:Work></rdf:RDF></metadata><defs
     id="defs5491" /><sodipodi:namedview
     pagecolor="#ffffff"
     bordercolor="#666666"
     borderopacity="1"
     objecttolerance="10"
     gridtolerance="10"
     guidetolerance="10"
     inkscape:pageopacity="0"
     inkscape:pageshadow="2"
     inkscape:window-width="1301"
     inkscape:window-height="744"
     id="namedview5489"
     showgrid="false"
     fit-margin-top="0"
     fit-margin-left="0"
     fit-margin-right="0"
     fit-margin-bottom="0"
     inkscape:pagecheckerboard="true"
     inkscape:zoom="0.79285994"
     inkscape:cx="407.1142"
     inkscape:cy="22.802422"
     inkscape:window-x="65"
     inkscape:window-y="24"
     inkscape:window-maximized="1"
     inkscape:current-layer="Capa_1" /><g
     id="g5486"
     transform="translate(-0.1,-258.2)"
     style="fill:#d1688f;fill-opacity:1"><g
       id="g5484"
       style="fill:#d1688f;fill-opacity:1"><path
         d="m 569.1,332.9 c -16.1,-17.4 -39,-27 -64.4,-27 h -61.3 v -33.1 c 0,-8 -6.6,-14.6 -14.6,-14.6 H 137 c -8,0 -14.6,6.6 -14.6,14.6 v 50.9 H 65.5 c -8,0 -14.6,6.6 -14.6,14.6 0,8 6.6,14.6 14.6,14.6 h 71.1 c 0.1,0 0.2,0 0.4,0 0,0 0,0 0.1,0 8,0 14.6,-6.6 14.6,-14.6 v -50.9 h 262.6 v 33.1 196 H 276.7 c -0.6,0 -1.2,0 -1.8,0.1 -7.3,-18 -25,-30.8 -45.5,-30.8 -20.7,0 -38.4,12.9 -45.5,31.1 -1.1,-0.2 -2.1,-0.4 -3.2,-0.4 h -28.9 v -51 c 0,-8 -6.6,-14.6 -14.6,-14.6 -0.2,0 -0.5,0 -0.7,0 -0.2,0 -0.4,0 -0.6,0 H 65.5 c -8,0 -14.6,6.6 -14.6,14.6 0,8 6.6,14.5 14.6,14.5 h 56.9 v 50.9 c 0,8 6.6,14.6 14.6,14.6 h 43.5 c 0.4,0 0.6,0 1,0 4.9,21.9 24.5,38.2 47.9,38.2 23.4,0 42.9,-16.3 47.9,-38.2 H 429 452.4 c 5,21.8 24.5,38.2 47.9,38.2 23.4,0 42.9,-16.3 47.9,-38.2 h 32.6 c 8,0 14.6,-6.6 14.6,-14.6 V 409.5 C 595.3,378 586.1,351.4 569.1,332.9 Z M 229.3,554.7 c -11,0 -19.9,-8.9 -19.9,-19.9 0,-11 8.9,-19.9 19.9,-19.9 11,0 19.9,8.9 19.9,19.9 0,11 -8.9,19.9 -19.9,19.9 z m 270.9,0 c -11,0 -19.9,-8.9 -19.9,-19.9 0,-11 8.9,-19.9 19.9,-19.9 11,0 19.9,8.9 19.9,19.9 -0.2,11 -9.1,19.9 -19.9,19.9 z m 65.9,-38.3 h -20.5 c -7.3,-17.9 -25,-30.7 -45.4,-30.7 -20.4,0 -38.1,12.7 -45.4,30.7 H 443.6 V 335.1 h 61.3 c 38.4,0 61.3,27.9 61.3,74.5 v 106.8 z"
         id="path5480"
         inkscape:connector-curvature="0"
         style="fill:#d1688f;fill-opacity:1" /><path
         d="m 251,429.2 c -5.7,5.7 -5.7,15 0,20.7 2.8,2.8 6.6,4.3 10.4,4.3 3.8,0 7.4,-1.5 10.4,-4.3 l 37.6,-37.6 0.1,-0.1 c 0.2,-0.4 0.6,-0.6 0.9,-1 0.1,-0.2 0.2,-0.4 0.4,-0.6 0.2,-0.2 0.2,-0.4 0.5,-0.6 0.1,-0.2 0.2,-0.5 0.4,-0.7 0.1,-0.2 0.2,-0.4 0.4,-0.6 0.2,-0.2 0.2,-0.5 0.4,-0.7 0.1,-0.2 0.2,-0.4 0.2,-0.6 0.1,-0.2 0.1,-0.5 0.2,-0.7 0.1,-0.2 0.1,-0.5 0.2,-0.6 0.1,-0.2 0.1,-0.5 0.1,-0.7 0,-0.2 0.1,-0.5 0.1,-0.7 0,-0.2 0.1,-0.5 0.1,-0.9 0,-0.2 0.1,-0.4 0.1,-0.6 0.1,-1 0.1,-1.9 0,-2.9 0,-0.2 0,-0.4 -0.1,-0.6 0,-0.2 -0.1,-0.5 -0.1,-0.9 0,-0.2 -0.1,-0.5 -0.1,-0.7 0,-0.2 -0.1,-0.5 -0.1,-0.7 -0.1,-0.2 -0.1,-0.5 -0.2,-0.6 -0.1,-0.2 -0.1,-0.5 -0.2,-0.7 -0.1,-0.2 -0.2,-0.4 -0.2,-0.6 -0.1,-0.2 -0.2,-0.5 -0.4,-0.7 -0.1,-0.2 -0.2,-0.4 -0.4,-0.6 -0.2,-0.2 -0.2,-0.5 -0.4,-0.7 -0.1,-0.2 -0.2,-0.4 -0.5,-0.6 -0.1,-0.2 -0.2,-0.4 -0.4,-0.6 -0.2,-0.4 -0.6,-0.6 -0.9,-1 l -0.1,-0.1 -35.8,-35.8 c -5.7,-5.7 -15,-5.7 -20.7,0 -5.7,5.7 -5.7,15 0,20.7 l 10.8,10.8 h -249 c -8,0 -14.6,6.6 -14.6,14.6 0,8 6.6,14.6 14.6,14.6 h 248.9 z"
         id="path5482"
         inkscape:connector-curvature="0"
         style="fill:#d1688f;fill-opacity:1" /></g></g></svg>