<svg xmlns="http://www.w3.org/2000/svg" viewBox="0 0 598.3 598.29997" width="598.3" height="598.3"><g fill="#d1688f"><path d="M348.5 297.7c5.8-13.3 9-27.4 9.6-42 24.9-26.5 38.6-61 38.6-97.2v-41.7c0-24.5-18.1-45.4-42.2-49-10-20.2-25.4-37.2-44.5-49.2C290.6 6.5 268.2 0 245.3 0h-16.2c-31.6 0-62.7 10.7-87.6 30.1-35 27.2-55.1 68.3-55.1 112.6v15.8c0 36.2 13.7 70.7 38.6 97.2 1.4 35.8 18.8 68.4 47.8 89.6v21.8l-73.9 16.4C40.7 396.5 0 447.2 0 506.8v91.5h598.3V297.7zm96.2 96.1V320h35.4v73.8zm57.6 22.2v-96h73.8v256.2H348.6V319.9h73.9v96h79.8zM335.4 144.1l-3.6 1.4c-61.3 24.5-125.9 37-192 37h-15v36.1c-10.6-18.2-16.2-38.9-16.2-60.2v-15.8c0-37.4 16.9-72.1 46.5-95.1 21-16.4 47.3-25.4 74-25.4h16.2c40 0 76 23.7 91.7 60.5l2.9 6.7h7.3c15.1 0 27.3 12.2 27.3 27.3v41.7c0 21.2-5.6 41.9-16.2 60.2v-74.6h-22.9zm-9 187v39.7l-16.2-3.6v-21.8c5.9-4.3 11.3-9.1 16.2-14.3zm-201.6 69.5v137.2H96v38.4H22.2v-69.3c0-49.2 33.5-91 81.5-101.6zm116.7-54.8c-52.1 0-94.5-42.4-94.5-94.5v-46.6c64.9-.8 128.5-13.3 189-36.9v83.5c0 52.1-42.4 94.5-94.5 94.5zm46.5 90.3v101.6h-93V436.1c12.7 11.8 29.1 18.2 46.5 18.2s33.8-6.4 46.5-18.2zm-46.5-3.9c-25.6 0-46.5-20.9-46.5-46.5v-27.5c14.8 6.5 30.5 9.8 46.5 9.8s31.7-3.3 46.5-9.8v27.5c0 25.6-20.8 46.5-46.5 46.5zM118.2 560H147V395.6l25.8-5.7V560h137.4V389.9l16.2 3.6v182.7H118.2z"/><path d="M537.7 537.8h22.2V560h-22.2zM460.9 537.8h60.6V560h-60.6zM460.9 499.4h99v22.2h-99z"/></g></svg>