<svg xmlns="http://www.w3.org/2000/svg" viewBox="0 0 302.90082 267.70001" width="302.901" height="267.7"><path d="M216.2 0c-23.2 0-44.9 9-61.3 25.4l-3.6 3.6-3.6-3.6C131.3 9 109.5 0 86.4 0 63.3 0 41.6 9 25.3 25.3 8.9 41.7-.1 63.5 0 86.5c0 23.2 9.1 44.8 25.4 61.2l115.7 115.7c2.8 2.8 6.5 4.3 10.2 4.3 3.6 0 7.4-1.4 10.2-4.2l116-115.6c16.4-16.4 25.4-38.2 25.4-61.2 0-23.2-9-44.9-25.3-61.3C261 9.1 239.2 0 216.2 0zm40.6 127.5L151.1 232.8 45.6 127.3c-10.9-10.9-16.9-25.4-16.9-40.9s6-29.9 16.8-40.7c10.8-10.8 25.3-16.8 40.7-16.8 15.4 0 29.9 6 40.9 16.9L141 59.7c5.7 5.7 14.8 5.7 20.5 0l13.8-13.8C186.2 35 200.7 29 216.2 29c15.3 0 29.8 6 40.7 16.9 10.9 10.9 16.9 25.4 16.8 40.7 0 15.5-6 30-16.9 40.9z" fill="#933ec5"/></svg>