<svg xmlns="http://www.w3.org/2000/svg" viewBox="0 0 511.98709 464.55313" width="511.987" height="464.553"><path d="M491.875 95.34c-14.9-14.9-34.4-21.2-56.6-18.6 2.7-22.2-3.7-41.7-18.6-56.6-28.7-28.7-73.1-25.8-101.6 2.8-35.6 35.7-22.3 87.3-15.7 165.9l-117 117-59.2-59.2c-6.5-6.5-17.1-6.5-23.7 0l-94.6 94.6c-6.5 6.5-6.5 17.1 0 23.7l59.2 59.2-11.8 11.8c-6.5 6.5-6.5 17.1 0 23.7 6.5 6.6 17.1 6.5 23.7 0l247-247c78.6 6.6 130.5 20.1 166.2-15.6 28.5-28.8 31.3-73.1 2.7-101.7zm-404.2 305.1l-47.3-47.3 23.7-23.7 11.8 11.8c6.5 6.5 17.1 6.5 23.7 0 6.5-6.5 6.5-17.1 0-23.7l-11.8-11.8 23.7-23.7 47.3 47.3zm377.7-227.2c-22 22-60.6 13-133.2 6.5-6.5-72.6-15.4-111.3 6.5-133.2 13.8-13.8 37.5-19.5 54.3-2.8 19.1 19.1 3.3 48.5 2.6 49.8-3.6 6.5-2.5 14.7 2.8 20 5.3 5.3 13.5 6.5 20 2.8 1.2-.7 30.8-16.5 49.8 2.6 16.7 16.8 11.1 40.5-2.8 54.3z" fill="#d80027"/></svg>