<?xml version="1.0" encoding="UTF-8" standalone="no"?>
<!-- Generator: Adobe Illustrator 16.0.0, SVG Export Plug-In . SVG Version: 6.00 Build 0)  -->

<svg
   xmlns:dc="http://purl.org/dc/elements/1.1/"
   xmlns:cc="http://creativecommons.org/ns#"
   xmlns:rdf="http://www.w3.org/1999/02/22-rdf-syntax-ns#"
   xmlns:svg="http://www.w3.org/2000/svg"
   xmlns="http://www.w3.org/2000/svg"
   xmlns:sodipodi="http://sodipodi.sourceforge.net/DTD/sodipodi-0.dtd"
   xmlns:inkscape="http://www.inkscape.org/namespaces/inkscape"
   version="1.1"
   id="Capa_1"
   x="0px"
   y="0px"
   width="48.431999"
   height="28.999001"
   viewBox="0 0 48.432 28.999001"
   xml:space="preserve"
   sodipodi:docname="001-maestro-pay-logo.svg"
   inkscape:version="0.92.1 r15371"><metadata
     id="metadata7311"><rdf:RDF><cc:Work
         rdf:about=""><dc:format>image/svg+xml</dc:format><dc:type
           rdf:resource="http://purl.org/dc/dcmitype/StillImage" /></cc:Work></rdf:RDF></metadata><defs
     id="defs7309" /><sodipodi:namedview
     pagecolor="#ffffff"
     bordercolor="#666666"
     borderopacity="1"
     objecttolerance="10"
     gridtolerance="10"
     guidetolerance="10"
     inkscape:pageopacity="0"
     inkscape:pageshadow="2"
     inkscape:window-width="640"
     inkscape:window-height="480"
     id="namedview7307"
     showgrid="false"
     fit-margin-top="0"
     fit-margin-left="0"
     fit-margin-right="0"
     fit-margin-bottom="0"
     inkscape:zoom="4.872912"
     inkscape:cx="24.216"
     inkscape:cy="14.499501"
     inkscape:window-x="305"
     inkscape:window-y="99"
     inkscape:window-maximized="0"
     inkscape:current-layer="Capa_1" /><g
     id="g7274"
     transform="translate(0,-9.7159999)"><g
       id="Layer_1_copy_4_"><path
         d="m 41.412,24.389 c 0,0.247 -0.021,0.474 -0.061,0.681 -0.144,0.883 -0.941,1.392 -1.311,1.392 -0.615,0.012 -0.983,-0.506 -0.983,-1.278 0,-0.912 0.532,-1.947 1.413,-1.947 0.697,-0.003 0.942,0.56 0.942,1.152 z m 1.947,2.732 h -0.043 v 0.101 h 0.062 c 0,0 0.021,0 0.041,-0.008 0.021,-0.009 0.021,-0.028 0.021,-0.045 0,-0.015 0,-0.031 -0.021,-0.039 0.001,-0.009 -0.04,-0.009 -0.06,-0.009 z m 4.024,4.908 c 0.042,0.073 0.062,0.152 0.062,0.232 0,0.08 -0.021,0.159 -0.062,0.232 -0.042,0.074 -0.1,0.134 -0.173,0.175 -0.074,0.041 -0.152,0.062 -0.231,0.062 -0.082,0 -0.16,-0.021 -0.234,-0.062 -0.073,-0.041 -0.131,-0.101 -0.174,-0.175 -0.041,-0.073 -0.062,-0.151 -0.062,-0.232 0,-0.081 0.021,-0.159 0.062,-0.232 0.041,-0.076 0.102,-0.133 0.176,-0.174 0.074,-0.041 0.15,-0.062 0.23,-0.062 0.079,0 0.155,0.021 0.229,0.062 0.077,0.041 0.136,0.098 0.177,0.174 z m -0.307,0.236 c 0.041,-0.018 0.061,-0.059 0.061,-0.102 0,-0.039 -0.02,-0.078 -0.041,-0.098 -0.041,-0.021 -0.082,-0.022 -0.102,-0.022 H 46.83 v 0.392 h 0.082 v -0.154 h 0.061 l 0.062,0.154 h 0.102 z M 23.983,23.9 c 0,-0.46 -0.287,-0.729 -0.799,-0.729 -0.553,0 -0.942,0.361 -1.106,1.019 l 1.905,0.004 c 0,-0.124 0,-0.219 0,-0.294 z m 19.724,3.346 c 0,0.188 -0.143,0.34 -0.328,0.34 -0.184,0 -0.348,-0.15 -0.348,-0.34 0,-0.185 0.164,-0.336 0.348,-0.336 0.185,0 0.328,0.152 0.328,0.336 z m -0.227,0.027 c 0.041,-0.018 0.062,-0.06 0.062,-0.102 0,-0.04 -0.021,-0.079 -0.041,-0.098 C 43.46,27.052 43.419,27.05 43.397,27.05 h -0.164 v 0.393 h 0.082 V 27.29 h 0.062 l 0.062,0.153 h 0.103 z m 4.952,-3.064 c 0,0.002 0,0.004 0,0.007 0.002,8.005 -6.484,14.497 -14.49,14.499 -3.744,10e-4 -7.158,-1.418 -9.729,-3.749 0.012,-0.012 0.025,-0.02 0.037,-0.031 0,0 0,0 -0.001,-0.002 h 0.003 c 0.527,-0.48 1.02,-0.998 1.472,-1.552 H 22.73 c 0.459,0.562 0.945,1.099 1.482,1.584 C 21.64,37.292 18.233,38.71 14.495,38.71 6.494,38.71 0,32.217 0,24.215 0,16.245 6.443,9.771 14.402,9.719 c 0.031,0 0.062,0 0.093,0 3.738,0 7.146,1.418 9.718,3.745 2.57,-2.328 5.98,-3.747 9.723,-3.748 8.003,-10e-4 14.494,6.488 14.496,14.493 z M 21.861,16.514 h 4.913 c -0.34,-0.542 -0.717,-1.061 -1.125,-1.552 h -2.754 c -0.372,0.501 -0.72,1.033 -1.034,1.552 z M 20.22,19.59 h 8.013 c -0.18,-0.532 -0.388,-1.05 -0.625,-1.553 h -6.605 c -0.424,0.799 -0.704,1.403 -0.783,1.553 z m -5.168,1.118 h -2.786 l -1.905,4.324 -0.123,-4.324 H 7.555 L 6.223,27.69 H 7.78 l 1.024,-5.334 0.287,5.334 h 1.557 l 2.355,-5.37 -1.024,5.37 h 1.72 z m 4.854,2.842 c 0,-1.088 -0.779,-1.665 -2.253,-1.665 -0.635,0 -1.188,0.081 -2.048,0.299 l -0.225,1.279 0.143,-0.037 0.246,-0.062 c 0.368,-0.098 0.921,-0.157 1.413,-0.157 0.798,0 1.106,0.14 1.106,0.515 0,0.104 -0.021,0.182 -0.062,0.369 -0.266,-0.027 -0.512,-0.044 -0.696,-0.044 -1.904,0 -3.01,0.808 -3.01,2.19 0,0.916 0.635,1.549 1.557,1.549 0.778,0 1.373,-0.217 1.802,-0.685 l -0.041,0.587 h 1.433 l 0.02,-0.154 0.021,-0.194 0.041,-0.288 0.061,-0.361 0.369,-2.017 c 0.103,-0.631 0.123,-0.843 0.123,-1.124 z m 0.308,1.704 c 0,1.673 1.004,2.546 2.929,2.546 0.594,0 1.167,-0.075 1.741,-0.229 l 0.286,-1.422 c -0.614,0.25 -1.167,0.36 -1.782,0.36 -0.983,0 -1.495,-0.335 -1.495,-0.992 0,-0.054 0,-0.093 0.021,-0.18 h 3.398 c 0.145,-0.576 0.207,-0.983 0.207,-1.404 0,-1.259 -0.902,-2.062 -2.314,-2.062 -1.721,0.002 -2.991,1.436 -2.991,3.383 z m 7.422,5.083 h -6.843 c 0.251,0.539 0.544,1.052 0.856,1.552 h 5.143 c 0.312,-0.499 0.593,-1.016 0.844,-1.552 z m 2.552,-8.339 c -0.449,-0.062 -1.125,-0.112 -1.535,-0.112 -1.926,0 -2.602,0.873 -2.602,1.922 0,0.716 0.41,1.212 1.331,1.583 0.696,0.283 0.799,0.367 0.799,0.627 0,0.354 -0.307,0.512 -0.983,0.512 -0.531,0 -1.004,-0.068 -1.557,-0.224 l -0.246,1.31 0.082,0.016 0.307,0.056 c 0.104,0.021 0.267,0.037 0.472,0.052 0.41,0.03 0.717,0.047 0.941,0.047 1.844,0 2.684,-0.599 2.684,-1.895 0,-0.779 -0.35,-1.236 -1.229,-1.581 -0.717,-0.288 -0.799,-0.352 -0.799,-0.618 0,-0.305 0.286,-0.461 0.84,-0.461 0.349,0 0.799,0.031 1.25,0.083 z m 1.843,4 c 0,-0.053 0,-0.131 0.021,-0.234 l 0.45,-2.369 h 0.881 l 0.246,-1.382 h -0.88 l 0.245,-1.304 h -1.699 l -0.799,4.336 -0.081,0.449 -0.103,0.559 c -0.021,0.18 -0.041,0.35 -0.041,0.51 0,0.805 0.471,1.248 1.352,1.248 0.39,0 0.758,-0.057 1.229,-0.186 l 0.225,-1.26 c -0.123,0.037 -0.266,0.055 -0.449,0.055 -0.412,-0.002 -0.597,-0.127 -0.597,-0.422 z m 4.998,-2.374 0.205,0.042 0.612,-1.605 c -0.144,-0.056 -0.164,-0.056 -0.184,-0.062 -0.083,-0.02 -0.146,-0.031 -0.146,-0.034 -0.061,-0.008 -0.123,-0.014 -0.185,-0.014 -0.554,0 -0.962,0.252 -1.495,0.923 L 36,22.012 h -1.557 l -1.045,5.68 h 1.721 c 0.615,-3.473 0.88,-4.083 1.699,-4.083 0.068,0 0.129,0.005 0.211,0.015 z m 6.166,1.493 c 0.041,-0.33 0.041,-0.354 0.041,-0.707 0,-1.44 -0.942,-2.562 -2.726,-2.562 -2.048,0 -3.379,1.365 -3.379,3.376 0,1.441 0.776,2.619 2.726,2.619 1.76,0.001 3.071,-0.838 3.338,-2.726 z m 0.635,2.129 c 0,-0.242 -0.205,-0.441 -0.451,-0.441 -0.246,0 -0.451,0.199 -0.451,0.441 0,0.246 0.205,0.445 0.451,0.445 0.246,0 0.451,-0.199 0.451,-0.445 z M 16.179,26.004 c 0,0.353 0.226,0.579 0.614,0.579 0.697,0 1.188,-0.582 1.229,-1.422 -0.185,-0.019 -0.267,-0.021 -0.39,-0.021 -0.961,-0.001 -1.453,0.29 -1.453,0.864 z m 30.774,6.111 h -0.041 v 0.101 h 0.062 c 0,0 0.021,0 0.041,-0.008 0.021,-0.009 0.021,-0.028 0.021,-0.046 0,-0.014 0,-0.03 -0.021,-0.039 0,-0.008 -0.041,-0.008 -0.062,-0.008 z"
         id="path7271"
         inkscape:connector-curvature="0" /></g></g><g
     id="g7276"
     transform="translate(0,-9.7159999)" /><g
     id="g7278"
     transform="translate(0,-9.7159999)" /><g
     id="g7280"
     transform="translate(0,-9.7159999)" /><g
     id="g7282"
     transform="translate(0,-9.7159999)" /><g
     id="g7284"
     transform="translate(0,-9.7159999)" /><g
     id="g7286"
     transform="translate(0,-9.7159999)" /><g
     id="g7288"
     transform="translate(0,-9.7159999)" /><g
     id="g7290"
     transform="translate(0,-9.7159999)" /><g
     id="g7292"
     transform="translate(0,-9.7159999)" /><g
     id="g7294"
     transform="translate(0,-9.7159999)" /><g
     id="g7296"
     transform="translate(0,-9.7159999)" /><g
     id="g7298"
     transform="translate(0,-9.7159999)" /><g
     id="g7300"
     transform="translate(0,-9.7159999)" /><g
     id="g7302"
     transform="translate(0,-9.7159999)" /><g
     id="g7304"
     transform="translate(0,-9.7159999)" /></svg>