<svg xmlns="http://www.w3.org/2000/svg" width="780" height="780" shape-rendering="geometricPrecision" text-rendering="geometricPrecision" image-rendering="optimizeQuality" fill-rule="evenodd" clip-rule="evenodd" viewBox="0 0 378 378"><path fill="#0C54A0" d="M0 378h378V0H0v378zm156-111c-5-5-7-12-7-20s2-15 6-20c5-5 11-8 19-8h1v-14h-1c-13 0-23 4-29 12s-9 18-9 30 3 22 10 30 16 12 28 12h1v-14h-1c-8 0-14-3-18-8zm-36-50c-5-8-10-12-18-12-7 0-12 4-16 12-4 7-6 17-6 29 0 13 2 23 6 30 4 8 9 12 16 12 8 0 14-4 18-12s6-18 6-30-2-22-6-29zm-10 50c-2 5-4 8-8 8-3 0-5-3-7-8s-3-12-3-21c0-8 1-15 3-20s4-8 7-8c4 0 7 3 8 8 2 5 3 11 3 20s-1 16-3 21zm95 0c-5-5-7-12-7-20s2-15 6-20c5-5 11-8 19-8h1v-14h-1c-13 0-23 4-29 12s-9 18-9 30 3 22 10 30c6 8 16 12 28 12h1v-14h-1c-8 0-14-3-18-8zm44-32v-28h-12v79h12v-32l19-20 2 52h13l-3-83-31 32zm92-32l-31 32v-28h-13v79h13v-32l19-20 2 52h13l-3-83zM68 220c-4-8-11-13-20-13H35v79h13v-23c2 3 5 4 8 4 4 0 8-2 11-7s4-13 4-22c0-7-1-13-3-18zm-20-1c3 0 6 2 7 5 2 4 3 9 3 17 0 4-1 7-2 9s-2 3-3 3c-2 0-3 0-4-2s-1-5-1-9v-23zm287-106c0-8-3-14-7-17s-9-5-15-5h-22l-3 80h15s1-37 1-39h18c1 2 5 39 5 39h14l-6-58zm-31 6c1-2 1-13 1-14h5c4 0 6 1 8 3 1 2 2 6 3 11h-17zm-103 0h-8c-4 0-6-1-8-2-1-1-1-3-1-4V91h-15v23c0 5 2 10 6 13 4 4 9 5 15 5h11v39h14V91h-14v28zm32-28v14h12v66h14v-66h13V91h-39zm-87 10c-4-8-11-12-19-12s-14 4-18 12c-5 7-7 17-7 30 0 12 2 22 6 30 5 8 11 11 19 11s15-4 19-12c5-7 7-17 7-29 0-13-2-23-7-30zm-19 58c-3 0-6-2-8-8-2-5-3-12-3-20 0-9 1-16 3-21s4-7 8-7 7 2 9 7c1 5 2 12 2 21 0 8-1 15-3 20-2 6-4 8-8 8zM35 91v80h14v-66h18v66h15V91H35z"/></svg>