<svg xmlns="http://www.w3.org/2000/svg" viewBox="0 0 56.414999 60" width="481.408" height="512"><g fill="#d1688f"><path d="M29.84 37.99c1.042-.082 1.99-.613 2.607-1.46l9.363-12.944c.287-.397.244-.945-.104-1.293-.348-.347-.896-.39-1.293-.104l-12.946 9.365c-.844.614-1.375 1.563-1.456 2.604-.08 1.04.297 2.06 1.034 2.796.67.672 1.576 1.044 2.517 1.044.094 0 .187-.004.28-.01zm-1.835-3.675c.035-.457.27-.874.637-1.142l7.897-5.713-5.712 7.895c-.27.37-.687.604-1.144.64-.455.03-.902-.128-1.227-.453-.322-.323-.488-.77-.452-1.227z"/><path d="M52.24 19.564c-.01-.02-.01-.043-.02-.064-.012-.02-.03-.03-.044-.05-1.01-1.734-2.207-3.347-3.565-4.81l2.15-2.146 1.413 1.414 4.242-4.243-4.242-4.242-4.243 4.242 1.415 1.415-2.148 2.147c-1.462-1.358-3.074-2.555-4.81-3.566-.018-.012-.03-.03-.05-.043-.02-.012-.042-.01-.063-.022C39.18 7.813 35.706 6.625 32 6.19V5h1.5C34.88 5 36 3.88 36 2.5S34.88 0 33.5 0h-9C23.12 0 22 1.12 22 2.5S23.12 5 24.5 5H26v1.156c-1.08.115-2.158.29-3.224.535-.538.124-.875.66-.75 1.2.122.537.66.875 1.197.75.92-.21 1.85-.37 2.78-.477l1.073-.083c.328-.025.63-.043.924-.057V10c0 .553.447 1 1 1 .553 0 1-.447 1-1V8.03c3.76.173 7.305 1.183 10.456 2.845l-.986 1.707c-.276.48-.112 1.09.366 1.366.157.09.33.134.5.134.345 0 .68-.18.866-.5l.983-1.703c3.13 1.984 5.787 4.642 7.772 7.77l-1.703.984c-.477.276-.64.887-.364 1.366.186.32.52.5.867.5.17 0 .342-.043.5-.134l1.706-.986c1.685 3.196 2.698 6.798 2.85 10.62h-1.976c-.553 0-1 .446-1 1 0 .552.447 1 1 1h1.975c-.15 3.82-1.164 7.422-2.85 10.618l-1.706-.986c-.478-.276-1.09-.114-1.366.366s-.112 1.09.366 1.366l1.703.983c-1.986 3.13-4.644 5.787-7.773 7.772l-.983-1.704c-.277-.48-.89-.643-1.366-.366-.48.276-.643.888-.366 1.366l.986 1.707c-3.15 1.662-6.695 2.672-10.456 2.845V56c0-.553-.447-1-1-1-.553 0-1 .447-1 1v1.976c-1.597-.055-3.2-.255-4.776-.617-.538-.13-1.075.212-1.198.75-.124.538.213 1.075.75 1.198 1.997.46 4.036.692 6.06.692.048 0 .095-.003.144-.004.007 0 .012.004.018.004.008 0 .015-.005.023-.005 4.807-.033 9.317-1.33 13.22-3.573.03-.014.063-.02.093-.04.02-.01.03-.03.05-.043 4.04-2.355 7.414-5.726 9.773-9.762.018-.027.042-.048.06-.078.01-.02.01-.043.02-.064 2.284-3.96 3.597-8.546 3.597-13.436 0-4.89-1.313-9.476-3.596-13.436zM52.173 8.25l1.414 1.415-1.414 1.415-1.415-1.415zM28 6.02V3h-3.5c-.275 0-.5-.225-.5-.5s.225-.5.5-.5h9c.275 0 .5.225.5.5s-.225.5-.5.5H30v3.02c-.348-.013-.68-.02-1-.02l-.088.002L28.837 6c-.164 0-.328.01-.492.014-.116.003-.225.002-.345.007zM20 14h-5c-.553 0-1 .447-1 1 0 .553.447 1 1 1h5c.553 0 1-.447 1-1 0-.553-.447-1-1-1zM20 21H10c-.553 0-1 .447-1 1 0 .553.447 1 1 1h10c.553 0 1-.447 1-1 0-.553-.447-1-1-1zM20 28H5c-.553 0-1 .447-1 1 0 .553.447 1 1 1h15c.553 0 1-.447 1-1 0-.553-.447-1-1-1zM20 35H1c-.553 0-1 .447-1 1 0 .553.447 1 1 1h19c.553 0 1-.447 1-1 0-.553-.447-1-1-1zM20 42H7c-.553 0-1 .447-1 1 0 .553.447 1 1 1h13c.553 0 1-.447 1-1 0-.553-.447-1-1-1zM20 49h-7c-.553 0-1 .447-1 1 0 .553.447 1 1 1h7c.553 0 1-.447 1-1 0-.553-.447-1-1-1z"/></g></svg>