<?xml version="1.0" encoding="UTF-8" standalone="no"?>
<!-- Generator: Adobe Illustrator 17.1.0, SVG Export Plug-In . SVG Version: 6.00 Build 0)  -->

<svg
   xmlns:dc="http://purl.org/dc/elements/1.1/"
   xmlns:cc="http://creativecommons.org/ns#"
   xmlns:rdf="http://www.w3.org/1999/02/22-rdf-syntax-ns#"
   xmlns:svg="http://www.w3.org/2000/svg"
   xmlns="http://www.w3.org/2000/svg"
   xmlns:sodipodi="http://sodipodi.sourceforge.net/DTD/sodipodi-0.dtd"
   xmlns:inkscape="http://www.inkscape.org/namespaces/inkscape"
   version="1.1"
   id="Capa_1"
   x="0px"
   y="0px"
   viewBox="0 0 512 453.89999"
   enable-background="new 0 0 512 512"
   xml:space="preserve"
   sodipodi:docname="support.svg"
   width="512"
   height="453.89999"
   inkscape:version="0.92.1 r"><metadata
     id="metadata4471"><rdf:RDF><cc:Work
         rdf:about=""><dc:format>image/svg+xml</dc:format><dc:type
           rdf:resource="http://purl.org/dc/dcmitype/StillImage" /></cc:Work></rdf:RDF></metadata><defs
     id="defs4469" /><sodipodi:namedview
     pagecolor="#ffffff"
     bordercolor="#666666"
     borderopacity="1"
     objecttolerance="10"
     gridtolerance="10"
     guidetolerance="10"
     inkscape:pageopacity="0"
     inkscape:pageshadow="2"
     inkscape:window-width="1600"
     inkscape:window-height="872"
     id="namedview4467"
     showgrid="false"
     fit-margin-top="0"
     fit-margin-left="0"
     fit-margin-right="0"
     fit-margin-bottom="0"
     inkscape:pagecheckerboard="true"
     inkscape:zoom="1.3037281"
     inkscape:cx="269.663"
     inkscape:cy="252.45798"
     inkscape:window-x="1366"
     inkscape:window-y="0"
     inkscape:window-maximized="1"
     inkscape:current-layer="Capa_1" /><g
     id="g4464"
     transform="translate(0,-29.1)"
     style="fill:#d1688f;fill-opacity:1"><path
       d="m 378.5,364.9 v 0 c 31.4,-31.4 50.8,-74.7 50.8,-122.6 0,-14.2 -1.7,-28.1 -5,-41.3 -0.1,-0.4 -0.2,-0.8 -0.3,-1.2 -7.8,-30.7 -23.8,-58.2 -45.5,-80 v 0 0 0 C 347.1,88.4 303.8,69 256,69 c -22.9,0 -44.7,4.4 -64.7,12.5 -0.2,0.1 -0.5,0.2 -0.7,0.3 -21.6,8.8 -41,21.8 -57.2,38 -31.4,31.4 -50.8,74.7 -50.8,122.6 0,47.9 19.4,91.2 50.8,122.5 v 0 c 31.4,31.4 74.7,50.8 122.5,50.8 47.9,0 91.3,-19.4 122.6,-50.8 z M 367.2,131.1 v 0 c 17.5,17.5 30.9,39.1 38.6,63.2 H 276.6 c -20.5,0 -39.2,-8.4 -52.7,-21.9 C 210.4,158.9 202,140.2 202,119.7 V 94.5 c 16.8,-6.2 35,-9.5 54,-9.5 43.5,0 82.8,17.6 111.2,46.1 z M 98.7,242.4 c 0,-11 1.1,-21.7 3.3,-32.1 14.4,-0.2 27.3,-1.2 39.5,-5.1 14.3,-4.5 27.3,-12.9 39.8,-27.9 2.8,-3.4 2.3,-8.4 -1.1,-11.3 -3.4,-2.8 -8.4,-2.3 -11.3,1 -10.3,12.4 -20.8,19.2 -32.3,22.9 -9.1,2.9 -19.2,3.9 -30.4,4.3 7.7,-24.1 21.1,-45.6 38.5,-63.1 12,-12 25.9,-22 41.3,-29.7 v 18.2 c 0,24.9 10.2,47.6 26.6,64 16.4,16.4 39.1,26.6 64.1,26.6 h 133.4 c 2.1,10.3 3.3,21.1 3.3,32 0,43.5 -17.6,82.8 -46.1,111.3 -28.5,28.4 -67.8,46.1 -111.3,46.1 -43.5,0 -82.8,-17.6 -111.3,-46.1 -28.4,-28.3 -46,-67.7 -46,-111.1 z"
       id="path4450"
       inkscape:connector-curvature="0"
       style="fill:#d1688f;fill-opacity:1" /><path
       d="m 282.2,371.7 c 8.7,-1.8 17.1,-4.4 25.1,-7.8 4.1,-1.7 6,-6.4 4.3,-10.4 -1.7,-4.1 -6.4,-6 -10.4,-4.3 -7,3 -14.4,5.3 -22,6.8 -7.4,1.5 -15.1,2.3 -23.1,2.3 -8,0 -15.8,-0.8 -23.1,-2.3 -7.6,-1.5 -15.1,-3.8 -22.1,-6.8 -4.1,-1.7 -8.7,0.2 -10.4,4.3 -1.7,4.1 0.2,8.7 4.3,10.4 8,3.4 16.4,6 25.1,7.8 8.6,1.7 17.4,2.7 26.2,2.7 8.8,0 17.6,-0.9 26.1,-2.7 z"
       id="path4452"
       inkscape:connector-curvature="0"
       style="fill:#d1688f;fill-opacity:1" /><path
       d="m 449.5,316.7 c -4.1,-1.7 -8.8,0.2 -10.5,4.3 -1.3,3.2 -2.7,6.1 -3.9,8.8 v 0 c -1.5,3 -3,5.9 -4.4,8.6 -1.6,2.9 -3.2,5.7 -4.8,8.3 -1.6,2.7 -3.3,5.3 -5.2,8.1 v 0 0 c -1.8,2.6 -3.6,5.2 -5.5,7.8 l -0.3,0.5 c -1.7,2.3 -3.6,4.7 -5.6,7.1 -2,2.5 -4.1,4.9 -6.3,7.3 -1.9,2.2 -4.2,4.5 -6.6,6.9 l -0.4,0.5 c -2.2,2.2 -4.4,4.3 -6.4,6.1 v 0 0 c -2.5,2.3 -5,4.4 -7.2,6.3 v 0 0 c -2.4,1.9 -4.9,3.9 -7.5,5.9 -2.6,1.9 -5.2,3.8 -7.8,5.5 -2.8,1.9 -5.5,3.6 -8.2,5.2 -2.7,1.6 -5.4,3.2 -8.2,4.7 l -0.5,0.3 c -2.5,1.4 -5.3,2.7 -8.2,4.1 l -0.4,0.2 c -2.6,1.2 -5.3,2.5 -8.4,3.8 l -0.5,0.2 -3.9,1.6 -4.7,1.8 v 0 l -4.4,1.6 v 0 l -4.8,1.6 -0.2,0.1 -4.3,1.3 v 0 l -4.9,1.3 c -4.3,1.1 -6.8,5.5 -5.7,9.8 1.1,4.3 5.5,6.8 9.8,5.7 l 4.9,-1.3 v 0 l 0.2,-0.1 4.5,-1.3 0.6,-0.2 4.8,-1.6 v 0 l 0.2,-0.1 4.8,-1.7 0.2,-0.1 4.7,-1.8 v 0 l 0.2,-0.1 4.1,-1.7 0.6,-0.2 c 2.8,-1.2 5.9,-2.6 9.1,-4.1 l 0.4,-0.2 c 2.8,-1.4 5.8,-2.9 8.9,-4.5 l 0.4,-0.2 c 3,-1.6 6,-3.3 8.9,-5.1 3.1,-1.9 6,-3.8 8.8,-5.6 2.9,-1.9 5.7,-4 8.4,-6 2.7,-2 5.4,-4.2 8.1,-6.4 v 0 c 2.8,-2.3 5.5,-4.6 7.8,-6.7 v 0 c 2.5,-2.2 4.8,-4.5 6.9,-6.6 l 0.5,-0.5 c 2.2,-2.2 4.6,-4.7 7.1,-7.4 2.3,-2.6 4.6,-5.2 6.8,-7.8 2,-2.4 4,-5 6,-7.7 l 0.4,-0.5 c 2,-2.7 4,-5.5 6,-8.4 v 0 c 1.9,-2.8 3.8,-5.7 5.6,-8.7 1.8,-3 3.6,-6 5.1,-8.9 1.7,-3.2 3.3,-6.3 4.8,-9.3 v 0 0 c 1.6,-3.3 3.1,-6.5 4.3,-9.5 1.8,-4.6 -0.1,-9.3 -4.2,-11 z"
       id="path4454"
       inkscape:connector-curvature="0"
       style="fill:#d1688f;fill-opacity:1" /><path
       d="M 59.7,185.3 H 59.4 C 43,185.4 28.2,192.1 17.5,202.8 6.7,213.6 0,228.5 0,245 c 0,16.5 6.7,31.4 17.5,42.2 10.8,10.8 25.7,17.5 42.2,17.5 4.4,0 8,-3.6 8,-8 v -0.2 -103.2 c 0,-4.4 -3.6,-8 -8,-8 z m -8,102.6 C 42.8,286.3 34.9,282 28.8,275.9 20.9,267.9 16,257 16,245 c 0,-12.1 4.9,-23 12.8,-30.9 6.1,-6.1 14,-10.4 22.9,-12 z"
       id="path4456"
       inkscape:connector-curvature="0"
       style="fill:#d1688f;fill-opacity:1" /><path
       d="m 494.5,202.8 v 0 C 483.7,192 468.9,185.4 452.6,185.3 h -0.3 c -4.4,0 -8,3.6 -8,8 v 103.1 0.2 c 0,4.4 3.6,8 8,8 16.5,0 31.4,-6.7 42.2,-17.5 10.8,-10.8 17.5,-25.7 17.5,-42.2 0,-16.4 -6.7,-31.3 -17.5,-42.1 z m -11.3,73.1 c -6.1,6.1 -14,10.4 -22.9,12.1 v -86 c 8.8,1.6 16.8,5.9 22.9,12 v 0 c 7.9,7.9 12.8,18.9 12.8,30.9 0,12.1 -4.9,23.1 -12.8,31 z"
       id="path4458"
       inkscape:connector-curvature="0"
       style="fill:#d1688f;fill-opacity:1" /><path
       d="m 144.9,78.9 c 16.5,-11.1 34.3,-19.6 52.9,-25.3 18.5,-5.6 37.8,-8.5 57.6,-8.6 0.2,0 0.4,0 0.5,0 20,0 39.5,2.9 58.2,8.6 18.6,5.7 36.4,14.2 52.9,25.3 16,10.8 30.3,23.8 42.4,38.5 12.1,14.7 22.2,31.2 29.6,48.9 1.7,4.1 6.4,6 10.4,4.3 4.1,-1.7 6,-6.4 4.3,-10.4 -8.1,-19.2 -18.9,-36.9 -32,-52.8 -13.1,-16 -28.6,-30 -45.7,-41.6 -17.7,-12 -37,-21.1 -57.2,-27.3 -20,-6.1 -40.9,-9.3 -62,-9.4 -0.3,0 -0.5,0 -0.8,0 -21.4,0 -42.5,3.2 -62.8,9.4 -20.2,6.1 -39.5,15.2 -57.2,27.2 -17.2,11.6 -32.6,25.7 -45.7,41.6 -13.1,15.9 -23.9,33.7 -32,52.8 -1.7,4.1 0.2,8.7 4.3,10.4 4.1,1.7 8.7,-0.2 10.4,-4.3 7.5,-17.7 17.5,-34.2 29.6,-48.9 12,-14.6 26.3,-27.6 42.3,-38.4 z"
       id="path4460"
       inkscape:connector-curvature="0"
       style="fill:#d1688f;fill-opacity:1" /><path
       d="m 276.2,434.1 c -5.2,-5.2 -12.4,-8.4 -20.2,-8.4 -7.9,0 -15.1,3.2 -20.3,8.4 -5.2,5.2 -8.4,12.4 -8.4,20.3 0,7.9 3.2,15 8.4,20.2 v 0 c 5.2,5.2 12.4,8.4 20.2,8.4 7.9,0 15.1,-3.2 20.3,-8.4 5.2,-5.2 8.4,-12.4 8.4,-20.3 0,-7.9 -3.2,-15 -8.4,-20.2 z m -11.3,29.2 c -2.3,2.3 -5.4,3.7 -9,3.7 -3.5,0 -6.7,-1.4 -9,-3.7 v 0 c -2.3,-2.3 -3.7,-5.4 -3.7,-8.9 0,-3.5 1.4,-6.7 3.7,-9 2.3,-2.3 5.5,-3.7 9,-3.7 3.5,0 6.7,1.4 9,3.7 v 0 c 2.3,2.3 3.7,5.5 3.7,9 0,3.4 -1.4,6.6 -3.7,8.9 z"
       id="path4462"
       inkscape:connector-curvature="0"
       style="fill:#d1688f;fill-opacity:1" /></g></svg>