<svg xmlns="http://www.w3.org/2000/svg" width="253.53mm" height="296.42mm" shape-rendering="geometricPrecision" text-rendering="geometricPrecision" image-rendering="optimizeQuality" fill-rule="evenodd" clip-rule="evenodd" viewBox="0 0 25446 29751"><g fill="#D1688F"><path d="M12607 16459h209c1881-35 3412-699 4547-1979 2393-2702 2044-7231 1991-7796-163-3395-1793-5019-3126-5782-1001-570-2154-879-3435-902h-111c-710 0-2096 116-3441 879-1356 769-3004 2399-3167 5811-52 570-407 5094 1991 7795 1130 1275 2661 1945 4542 1974zM8595 6934l6-23v-6c0-17 6-35 6-64 175-3732 2626-4291 4070-4291h64c1769 41 3912 821 4075 4285 0 29 0 70 12 122 29 356 302 3971-1363 5846-669 751-1537 1112-2724 1118h-59c-1176-12-2067-379-2724-1124-1706-1921-1380-5671-1363-5863z"/><path d="M25444 23352v-11c0-35 0-64-5-99v-76c-18-617-53-1653-425-2672-472-1281-1345-2149-2597-2579-18-6-29-12-47-18l-40-11c-2556-653-4711-2120-4798-2184l-6-6c-215-151-465-232-727-232-414 0-804 203-1043 541-401 571-262 1368 309 1770 99 70 2521 1764 5578 2556 983 361 1211 1380 1257 2905 0 52 0 111 6 169 6 466-23 1089-82 1519-1211 653-4768 2283-10101 2283-5304 0-8884-1630-10107-2288-64-449-93-1095-82-1537v-12-41c0-29 6-64 6-99 47-1525 274-2544 1258-2905 2695-699 4925-2113 5542-2527l35-23c577-402 711-1199 309-1770-239-338-629-541-1042-541-262 0-513 81-728 232l-6 6c-87 64-2236 1531-4791 2184-35 11-64 17-99 29-1240 430-2114 1298-2585 2579C60 21513 25 22543 8 23160v117l-6 29v41c-6 332-18 1985 337 2876 99 250 268 460 495 599 216 140 4629 2929 11901 2929 7079 0 11423-2626 11900-2923l6-6c221-145 396-361 489-599 332-891 320-2533 314-2871z"/></g></svg>