<?xml version="1.0" encoding="UTF-8" standalone="no"?>
<!-- Generator: Adobe Illustrator 19.0.0, SVG Export Plug-In . SVG Version: 6.00 Build 0)  -->

<svg
   xmlns:dc="http://purl.org/dc/elements/1.1/"
   xmlns:cc="http://creativecommons.org/ns#"
   xmlns:rdf="http://www.w3.org/1999/02/22-rdf-syntax-ns#"
   xmlns:svg="http://www.w3.org/2000/svg"
   xmlns="http://www.w3.org/2000/svg"
   xmlns:sodipodi="http://sodipodi.sourceforge.net/DTD/sodipodi-0.dtd"
   xmlns:inkscape="http://www.inkscape.org/namespaces/inkscape"
   version="1.1"
   id="Layer_1"
   x="0px"
   y="0px"
   viewBox="0 0 512 353.09799"
   xml:space="preserve"
   sodipodi:docname="visa.svg"
   width="512"
   height="353.09799"
   inkscape:version="0.92.1 r15371"><metadata
     id="metadata3914"><rdf:RDF><cc:Work
         rdf:about=""><dc:format>image/svg+xml</dc:format><dc:type
           rdf:resource="http://purl.org/dc/dcmitype/StillImage" /><dc:title></dc:title></cc:Work></rdf:RDF></metadata><defs
     id="defs3912" /><sodipodi:namedview
     pagecolor="#ffffff"
     bordercolor="#666666"
     borderopacity="1"
     objecttolerance="10"
     gridtolerance="10"
     guidetolerance="10"
     inkscape:pageopacity="0"
     inkscape:pageshadow="2"
     inkscape:window-width="1301"
     inkscape:window-height="744"
     id="namedview3910"
     showgrid="false"
     inkscape:pagecheckerboard="true"
     fit-margin-top="0"
     fit-margin-left="0"
     fit-margin-right="0"
     fit-margin-bottom="0"
     inkscape:zoom="0.4609375"
     inkscape:cx="251.66101"
     inkscape:cy="1.6403806"
     inkscape:window-x="65"
     inkscape:window-y="24"
     inkscape:window-maximized="1"
     inkscape:current-layer="Layer_1" /><g
     id="g3935"
     transform="translate(0,-79.451)"
     clip-path="none"><g
       id="g3921"><g
         id="g3917"><path
           id="path3859"
           d="m 512,402.281 c 0,16.716 -13.55,30.267 -30.265,30.267 H 30.265 C 13.55,432.549 0,418.997 0,402.281 V 109.717 C 0,93.001 13.55,79.451 30.265,79.451 h 451.47 c 16.716,0 30.265,13.551 30.265,30.266 z"
           style="fill:#ffffff"
           inkscape:connector-curvature="0" /></g></g><path
       id="path3861"
       d="M 113.64,258.035 101.618,200.364 C 99.563,192.411 93.583,190.045 86.111,189.732 H 30.993 l -0.491,2.635 c 42.929,10.407 71.334,35.513 83.138,65.668 z"
       style="fill:#f79f1a"
       inkscape:connector-curvature="0" /><g
       id="g3873"><polygon
         id="polygon3863"
         points="241.354,190.892 205.741,190.892 183.499,321.419 219.053,321.419 "
         style="fill:#059bbf" /><path
         id="path3865"
         d="m 135.345,321.288 56.01,-130.307 h -37.691 l -34.843,89.028 -3.719,-13.442 c -6.83,-16.171 -26.35,-39.446 -49.266,-54.098 l 31.85,108.863 z"
         style="fill:#059bbf"
         inkscape:connector-curvature="0" /><path
         id="path3867"
         d="m 342.931,278.75 c 0.132,-14.819 -9.383,-26.122 -29.887,-35.458 -12.461,-6.03 -20.056,-10.051 -19.965,-16.17 0,-5.406 6.432,-11.213 20.368,-11.213 11.661,-0.179 20.057,2.367 26.624,5.003 l 3.218,1.475 4.826,-28.277 c -7.059,-2.637 -18.094,-5.451 -31.895,-5.451 -35.157,0 -59.904,17.691 -60.128,43.064 -0.224,18.763 17.692,29.216 31.181,35.469 13.847,6.374 18.493,10.453 18.404,16.171 -0.089,8.743 -11.035,12.73 -21.264,12.73 -14.25,0 -21.8,-1.965 -33.509,-6.843 l -4.55,-2.09 -4.998,29.249 c 8.303,3.629 23.668,6.801 39.618,6.933 37.387,0 61.689,-17.466 61.957,-44.592 z"
         style="fill:#059bbf"
         inkscape:connector-curvature="0" /><path
         id="path3869"
         d="m 385.233,301.855 c 4.065,0 40.382,0.045 45.566,0.045 1.072,4.545 4.333,19.565 4.333,19.565 h 33.011 L 439.33,191.027 h -27.472 c -8.533,0 -14.874,2.323 -18.628,10.809 l -52.845,119.629 h 37.392 c -0.003,0 6.071,-16.079 7.456,-19.61 z m 24.389,-63.21 c -0.176,0.357 2.95,-7.549 4.737,-12.463 l 2.411,11.256 c 0,0 6.792,31.182 8.22,37.704 h -29.528 c 2.949,-7.504 14.16,-36.497 14.16,-36.497 z"
         style="fill:#059bbf"
         inkscape:connector-curvature="0" /><path
         id="path3871"
         d="M 481.735,79.451 H 30.265 C 13.55,79.451 0,93.001 0,109.717 v 31.412 H 512 V 109.717 C 512,93.001 498.451,79.451 481.735,79.451 Z"
         style="fill:#059bbf"
         inkscape:connector-curvature="0" /></g><path
       id="path3875"
       d="M 481.735,432.549 H 30.265 C 13.55,432.549 0,418.998 0,402.283 v -31.412 h 512 v 31.412 c 0,16.715 -13.549,30.266 -30.265,30.266 z"
       style="fill:#f79f1a"
       inkscape:connector-curvature="0" /><path
       id="path3877"
       d="M 21.517,402.281 V 109.717 c 0,-16.716 13.551,-30.266 30.267,-30.266 H 30.264 C 13.55,79.451 0,93.001 0,109.717 v 292.565 c 0,16.716 13.55,30.267 30.265,30.267 h 21.52 c -16.716,0 -30.268,-13.552 -30.268,-30.268 z"
       style="opacity:0.15;fill:#202121;enable-background:new"
       inkscape:connector-curvature="0" /></g><g
     id="g3879"
     transform="translate(-2.1694958,-75.112017)" /><g
     id="g3881"
     transform="translate(-2.1694958,-75.112017)" /><g
     id="g3883"
     transform="translate(-2.1694958,-75.112017)" /><g
     id="g3885"
     transform="translate(-2.1694958,-75.112017)" /><g
     id="g3887"
     transform="translate(-2.1694958,-75.112017)" /><g
     id="g3889"
     transform="translate(-2.1694958,-75.112017)" /><g
     id="g3891"
     transform="translate(-2.1694958,-75.112017)" /><g
     id="g3893"
     transform="translate(-2.1694958,-75.112017)" /><g
     id="g3895"
     transform="translate(-2.1694958,-75.112017)" /><g
     id="g3897"
     transform="translate(-2.1694958,-75.112017)" /><g
     id="g3899"
     transform="translate(-2.1694958,-75.112017)" /><g
     id="g3901"
     transform="translate(-2.1694958,-75.112017)" /><g
     id="g3903"
     transform="translate(-2.1694958,-75.112017)" /><g
     id="g3905"
     transform="translate(-2.1694958,-75.112017)" /><g
     id="g3907"
     transform="translate(-2.1694958,-75.112017)" /></svg>