<svg xmlns="http://www.w3.org/2000/svg" width="48" height="16" viewBox="0 0 48 16" overflow="scroll"><style>.st0{fill:#397abb}.st1{fill-rule:evenodd;clip-rule:evenodd;fill:#fdb624}</style><path class="st0" d="M48 15.6v-.1l-.1-.4-.1-.5v-.3-.1l-.2-.7v-.2l-.3-1.5v-.1l-.1-.6V11v-.1-.1l-.2-.3-.4-1.5v-.4l-.1-.3v-.1l-.1-.7V7.2L46 5.8v-.2c0-.2-.1-.5-.1-.7l-.1-.5V4v-.1l-.3-1.2-.1-.6v-.2l-.2-1V.8h-3.7l-.2.1c-.1 0-.2.1-.3.1l-.2.1c-.1 0-.2.1-.2.2 0 0-.1.1-.1.2l-.3.6-.1.2-.4 1v.1l-.5 1.3-.5 1.3H38v.2l-.1.3-.3.5-.1.1-.1.3-.4 1.1-.1.3-.2.4-.1.2-.1.2-.1.2c0 .1 0 0 0 0l-.3.7-.1.3v.1l-.1.3-.1.1-.1.2v.1l-.1.4-.1.1-.1.2c0 .1 0 0 0 0l-.3.7-.2.5-.1.3-.5 1.1c0 .1 0 0 0 0v.1l-.1.1-.2.7h4.1l.4-1.3.1-.3.1-.2.2-.4h4.9l.1.4.2.9v.1l.1.6c.1.2 0 .2.3.2h3.4l.1-.2zm-7.9-5.4s.2-.5.2-.7l.2-.7.1-.3.1-.1.6-1.5.5-1.5.2-.6v-.1.4l.1.5.3.4v.1l.4 2.2v.1l.2.3.1.7v.1l.1.5c0 .1.1.2 0 .2h-3.1zM34.2 12.1v-.5-.2-.3-.2-.3-1.1l-.2-.4c0-.1-.1-.3-.2-.4l-.3-.4-.1-.1c-.1-.1 0 0 0-.1l-.4-.4s-.1 0-.1-.1-.1-.1-.2-.1l-.6-.4-.4-.3-.4-.2-.2-.1-.7-.3-.1-.2h-.1l-.2-.1-.3-.2-.2-.1-.3-.3v-.1L29 5l-.1-.2v-.1c0-.1 0-.3.1-.4l.2-.3c.1-.1.2-.1.2-.1l.1-.1c.1-.1-.1.1 0 0l.1-.1h.2l.5-.2.5-.1h1l.9.2.3.1.3.1.2.1h.6l.1.1h.2v-.2-.1l.1-.7.3-2.1V.8c0-.1-.2-.1-.2-.1l-.2-.1c-.1 0 0 0 0 0h-.2L34 .3l-.3-.1-.4-.1h-1-1.9l-1.5.3H28.6l-.3.1c-.1 0-.2.1-.3.1l-.3.1h-.1l-.3.3-.1.1-.3.2-.4.4-.1.1c-.3.1-.3.1-.4.2l-.1.1-.2.2-.3.4-.1.2c-.1.1-.1.1-.1.2v.2l-.2.4-.2 1c-.1.2 0 .5 0 .7v.4l.2.6v.1c0 .1.1.2.2.3l.2.4.2.2c0 .1.2.2.3.3.1.2.2.3.3.3l.1.1.1.1.2.1.1.1c.1 0 .2.1.2.2l.9.5.4.2h.1l1 .6.2.1.2.2h.1c.1.1 0 .1.1.1l.1.2v.8s0 .1-.1.2l.1.4c-.1.1-.1.2-.2.2l-.1.1-.3.2h-.1c-.1 0-.1 0-.2.1H29c-.1 0-.3.1-.4.1h-.4c-.3.1-.4 0-.7 0h-.8l-.4-.1-1-.3-.3-.1h-.1l-.5-.1-.2-.1-.2-.1s-.1-.1-.2-.1v.3l-.2.9v.1l-.1.6-.1.5v.1l-.1.6v.3l.4.2c.1 0 0 0 0 0l.5.2h.2l1.5.3H29.2l.3-.1h.4l.2-.1h.1l.2-.1.2-.1h.1c.1 0 0 0 0 0l.2-.1.3-.2.2-.1.2-.1c.1 0 .1-.1.2-.2l.2-.2c.1-.1.2-.1.2-.2l.1-.1.1-.1.4-.5.1-.1.3-.7 1-.7zM16.9 2.6l.2-.5v-.2l.4-.9.2-.5V.3h-4.2l-.2.5.1.2-.2.5-.4 1.1-.2.6-.1.2-.1.2-.1.2-.1.3-.1.2-.1.4c0 .1 0 0 0 0l-.2.6v.1l-.1.2v.2l-.1.2-.2.5-.2.5v.1l-.4 1.2-.1.2-.1.2-.3.7-.1.2-.1.2v.2l-.1.2c0 .1 0 .1-.1.2v-.2l-.2-.4-.2-1v-.1L9 7.6c-.5-.9-.9-1.6-1.6-2.4l-.1-.1-.1-.2s0-.1-.1-.1l-.2-.2c-.1-.2-.4-.4-.4-.5-.2-.1-.3-.2-.4-.3-.1-.1-.6-.5-.7-.6-.2-.1-.3-.2-.4-.3-.3-.2-.5-.4-.8-.5-.1-.1-.1 0-.1 0v.1l.1.4.1.4.2.6V4.2l.1.3.1.5v.2l.1.3.2.8.2.8.1.2.3 1v.1l.1.2.1.2.1.3v.2l.2.7V10.3l.2.7c0 .1 0 0 0 0v.7l.1.4.1.4c0 .1 0 .2.1.4l.2.9.1.3.1.2v.1l.1.3.1.2.1.3H11.4l.1-.2.1-.2v-.1l.1-.3.2-.5.1-.2.1-.2.1-.3v-.1l.2-.5.1-.4v-.1l.1-.4v-.2l.1-.3v-.1l.1-.3.3-.7V10l.1-.2.3-.7.1-.1h.8l.1-.2.1-.2.1-.2v-.1l.1-.3v-.1l.1-.2.4-1 .1-.2.1-.5.2-.6.3-.8v-.1l.1-.3.2-.5v-.1l.1-.2v-.2l.1-.3c.3-.2.3-.2.4-.3zM23.2.5V.2h-3.7c-.2 0-.3 0-.3.1V1l-.1.4-.1.7v.7l-.1.5v1.5l-.1.6v.4l-.1.3v.1l-.3 1.7-.1.8-.2.8v.1l-.1.7V10.6l-.3 1.7v.6l-.1.4V14.7l-.1.4v.3h3.9v-.7.3l.1-.5v-.1l.2-1.1V13v-.1l.2-1v-.1l.1-.9.2-1v-.1l.2-1v-.1L22 8v-.4l.4-2.5v-.7-.1l.2-1.1v-.3-.1l.5-1.8V.9l.1-.4z"/><path class="st1" d="M0 .5v.1h.1c.4.1.6.2 1 .3.3.1.8.3 1.1.4l.6.3 1 .5.2.1c.1 0 .1 0 .2.1h.1c.2.2.4.4.7.6.1.1.2.2.4.3.1.1.6.5.7.6.1.1.2.2.4.3l.5.5.2.2s0 .1.1.1l.2.2.1.1c.5.8.9 1.5 1.4 2.4l.4 1-.7-3.8c-.1-.5-.3-1.4-.4-1.9 0-.2-.2-1.4-.3-1.5 0-.2-.1-.3-.2-.5L7.6.7 7.4.5C7.1.4 6.8.3 6.6.3H.2.1C0 .2 0 .3 0 .5z"/></svg>