<svg xmlns="http://www.w3.org/2000/svg" width="18" height="18.8" viewBox="0 0 18 18.8" overflow="scroll"><style>.st0{fill:#b3b3b3}</style><path class="st0" d="M1.6 0c-.2 0-.4.2-.4.4v16.8H.8c-.4 0-.8.4-.8.8s.4.8.8.8h16.4c.5 0 .8-.4.8-.8s-.4-.8-.8-.8h-.4V.4c0-.2-.2-.4-.4-.4h-.2l-.6.3-.7-.3h-.4l-.6.3-.6-.3h-.4l-.6.3-.7-.3h-.3l-.6.3L10 0h-.4L9 .4 8.4 0H8l-.6.4-.7-.4h-.3l-.7.4-.6-.4h-.4l-.6.4-.6-.4h-.4l-.6.4-.7-.4h-.2zm1.7.9l.6.3c.1.1.2.1.4 0l.6-.3.6.3c.1.1.2.1.4 0l.6-.3.6.3c.1.1.2.1.4 0l.6-.3.6.3c.1.1.2.1.4 0l.6-.3.6.3c.1.1.2.1.4 0l.6-.3.6.3c.1.1.2.1.4 0l.6-.3.6.3c.1.1.2.1.4 0l.6-.3.6.3c.1.1.2.1.4 0l.5-.1V18H2V1.1l.2.1c.1.1.2.1.4 0l.7-.3zM4 3.7c-.2 0-.4.2-.4.5 0 .2.2.4.5.4h6.1c.2 0 .4-.2.4-.4s-.2-.4-.4-.4H4.1c0-.1 0-.1-.1-.1zm8.6 0c-.2 0-.4.2-.4.5 0 .2.2.4.5.4h1.2c.2 0 .4-.2.4-.4s-.2-.4-.4-.4h-1.2c0-.1 0-.1-.1-.1zM4 6.1c-.2 0-.4.2-.4.5.1.2.3.4.5.4h4.5c.2 0 .4-.2.4-.4s-.2-.4-.4-.4H4.1c0-.1 0-.1-.1-.1zm8.6 0c-.2 0-.4.2-.4.5 0 .2.2.4.5.4h1.2c.2 0 .4-.2.4-.4s-.2-.4-.4-.4h-1.2c0-.1 0-.1-.1-.1zM4 8.6c-.2 0-.4.2-.4.5 0 .2.2.4.5.4h6.1c.2 0 .4-.2.4-.4s-.2-.4-.4-.4H4.1c0-.1 0-.1-.1-.1zm8.6 0c-.2 0-.4.2-.4.5 0 .2.2.4.5.4h1.2c.2 0 .4-.2.4-.4s-.2-.4-.4-.4h-1.2c0-.1 0-.1-.1-.1zM4 11c-.2 0-.4.2-.4.5 0 .2.2.4.5.4h4.5c.2 0 .4-.2.4-.4s-.2-.4-.4-.4H4.1c0-.1 0-.1-.1-.1zm8.6 0c-.2 0-.4.2-.4.5 0 .2.2.4.5.4h1.2c.2 0 .4-.2.4-.4s-.2-.4-.4-.4h-1.2c0-.1 0-.1-.1-.1zm-8.5 2.5c-.2 0-.4.2-.4.4s.2.4.4.4.4-.2.4-.4-.2-.4-.4-.4zm1.2 0c-.2 0-.4.2-.4.4s.2.4.4.4.4-.2.4-.4-.2-.4-.4-.4zm1.2 0c-.2 0-.4.2-.4.4s.2.4.4.4.5-.2.5-.4-.2-.4-.5-.4zm1.3 0c-.2 0-.4.2-.4.4s.2.4.4.4.4-.2.4-.4-.2-.4-.4-.4zm1.2 0c-.2 0-.4.2-.4.4s.2.4.4.4.4-.2.4-.4-.2-.4-.4-.4zm1.2 0c-.2 0-.4.2-.4.4s.2.4.4.4.4-.2.4-.4-.1-.4-.4-.4zm1.3 0c-.2 0-.4.2-.4.4s.2.4.4.4.4-.2.4-.4-.2-.4-.4-.4zm1.2 0c-.2 0-.4.2-.4.4s.2.4.4.4.4-.2.4-.4-.2-.4-.4-.4zm1.2 0c-.2 0-.4.2-.4.4s.2.4.4.4.4-.2.4-.4-.2-.4-.4-.4zm-2.6 2c-.2 0-.4.2-.4.5 0 .2.2.4.5.4h2.5c.2 0 .4-.2.4-.4s-.2-.4-.4-.4h-2.5c0-.1 0-.1-.1-.1.1 0 .1 0 0 0 .1 0 .1 0 0 0z"/></svg>