<?xml version="1.0" encoding="UTF-8" standalone="no"?>
<!-- Generator: Adobe Illustrator 16.0.0, SVG Export Plug-In . SVG Version: 6.00 Build 0)  -->

<svg
   xmlns:dc="http://purl.org/dc/elements/1.1/"
   xmlns:cc="http://creativecommons.org/ns#"
   xmlns:rdf="http://www.w3.org/1999/02/22-rdf-syntax-ns#"
   xmlns:svg="http://www.w3.org/2000/svg"
   xmlns="http://www.w3.org/2000/svg"
   xmlns:sodipodi="http://sodipodi.sourceforge.net/DTD/sodipodi-0.dtd"
   xmlns:inkscape="http://www.inkscape.org/namespaces/inkscape"
   version="1.1"
   id="Capa_1"
   x="0px"
   y="0px"
   width="49.075657"
   height="17.11902"
   viewBox="0 0 49.075657 17.11902"
   xml:space="preserve"
   sodipodi:docname="004-money.svg"
   inkscape:version="0.92.1 r15371"><metadata
     id="metadata6965"><rdf:RDF><cc:Work
         rdf:about=""><dc:format>image/svg+xml</dc:format><dc:type
           rdf:resource="http://purl.org/dc/dcmitype/StillImage" /><dc:title></dc:title></cc:Work></rdf:RDF></metadata><defs
     id="defs6963" /><sodipodi:namedview
     pagecolor="#ffffff"
     bordercolor="#666666"
     borderopacity="1"
     objecttolerance="10"
     gridtolerance="10"
     guidetolerance="10"
     inkscape:pageopacity="0"
     inkscape:pageshadow="2"
     inkscape:window-width="640"
     inkscape:window-height="480"
     id="namedview6961"
     showgrid="false"
     fit-margin-top="0"
     fit-margin-left="0"
     fit-margin-right="0"
     fit-margin-bottom="0"
     inkscape:zoom="4.8088679"
     inkscape:cx="24.538"
     inkscape:cy="8.5599999"
     inkscape:window-x="265"
     inkscape:window-y="112"
     inkscape:window-maximized="0"
     inkscape:current-layer="Capa_1" /><g
     id="g6928"
     transform="translate(0,-15.97898)"><g
       id="Layer_1_copy_11_"><path
         d="m 5.205,24.78 c -1.243,0 -2.447,0 -3.621,0 C 1.534,25.809 1.51,26.821 1.428,27.831 1.355,28.727 1.157,29.606 0.761,30.452 0.63,30.731 0.473,30.915 0.073,30.848 0.052,30.844 0.026,30.86 0,30.87 c 0,0.744 0,1.484 0,2.224 0.365,0 0.709,0 1.081,0 0,-0.503 0,-0.986 0,-1.468 1.313,0 2.6,0 3.915,0 0,0.498 0,0.98 0,1.472 0.366,0 0.702,0 1.05,0 0,-0.752 0,-1.494 0,-2.257 -0.289,0 -0.556,0 -0.841,0 0,-2.03 0,-4.037 0,-6.061 z m -1.173,6.053 c -0.812,0 -1.615,0 -2.37,0 0.202,-0.506 0.449,-1.004 0.599,-1.521 0.301,-1.039 0.299,-2.105 0.307,-3.168 0.002,-0.164 0,-0.33 0,-0.51 0.491,0 0.967,0 1.465,0 -0.001,1.72 -0.001,3.445 -0.001,5.199 z m 7.801,-12.752 c -0.687,0 -1.346,0 -2.043,0 0,0.254 0.009,0.482 -10e-4,0.711 -0.034,0.796 -0.063,1.593 -0.395,2.355 -0.082,0.188 -0.143,0.389 -0.46,0.347 0,0.424 0,0.828 0,1.23 0.2,0 0.379,0 0.589,0 0,-0.275 0,-0.537 0,-0.799 0.748,0 1.464,0 2.213,0 0,0.277 0,0.539 0,0.795 0.21,0 0.387,0 0.557,0 0,-0.424 0,-0.828 0,-1.232 -0.16,-0.006 -0.296,-0.012 -0.46,-0.018 0,-1.136 0,-2.258 0,-3.389 z m -0.645,3.389 c -0.466,0 -0.904,0 -1.376,0 0.597,-0.924 0.516,-1.917 0.559,-2.908 0.273,0 0.537,0 0.817,0 0,0.968 0,1.927 0,2.908 z m -0.852,9.515 C 9.277,31.202 8.585,30.909 8.283,30.141 8.05,29.551 8.059,28.942 8.049,28.299 c 1.16,0 2.285,0 3.456,0 -0.048,-0.535 -0.053,-1.057 -0.15,-1.562 -0.123,-0.633 -0.367,-1.24 -0.872,-1.75 -0.447,-0.451 -0.985,-0.582 -1.656,-0.4 -0.697,0.189 -1.122,0.627 -1.408,1.146 -0.838,1.523 -0.91,3.092 -0.268,4.674 0.193,0.478 0.52,0.894 1.064,1.16 0.912,0.449 2.387,0.293 3.312,-0.354 -0.073,-0.18 -0.147,-0.362 -0.213,-0.522 -0.343,0.106 -0.652,0.227 -0.978,0.294 z M 8.571,25.797 c 0.163,-0.229 0.38,-0.416 0.744,-0.399 0.356,0.019 0.567,0.205 0.71,0.447 0.316,0.543 0.369,1.125 0.366,1.729 -0.796,0 -1.565,0 -2.375,0 0.06,-0.64 0.172,-1.238 0.555,-1.777 z m 5.864,-3.689 c 0.287,-0.03 0.574,-0.111 0.844,-0.205 0.301,-0.104 0.309,-0.2 0.101,-0.422 -0.183,0.053 -0.359,0.117 -0.543,0.154 -0.513,0.104 -0.879,-0.01 -1.074,-0.333 -0.229,-0.378 -0.218,-0.784 -0.204,-1.209 0.658,0 1.29,0 1.935,0 0.042,-0.636 -0.036,-1.232 -0.439,-1.774 -0.354,-0.476 -0.967,-0.552 -1.454,-0.161 -0.183,0.146 -0.337,0.333 -0.445,0.523 -0.302,0.529 -0.417,1.099 -0.346,1.677 0.045,0.359 0.144,0.724 0.297,1.062 0.222,0.497 0.735,0.751 1.328,0.688 z M 13.88,18.615 c 0.218,-0.271 0.578,-0.263 0.771,0.021 0.216,0.315 0.242,0.663 0.233,1.028 -0.469,0 -0.898,0 -1.348,0 0.021,-0.382 0.094,-0.736 0.344,-1.049 z m 5.173,3.292 c -0.225,0 -0.412,0.015 -0.594,-0.008 -0.068,-0.009 -0.14,-0.094 -0.182,-0.157 -0.322,-0.476 -0.637,-0.955 -0.956,-1.434 -0.045,-0.068 -0.096,-0.133 -0.215,-0.206 -0.04,0.152 -0.11,0.304 -0.116,0.456 -0.016,0.442 -0.006,0.886 -0.006,1.339 -0.221,0 -0.41,0 -0.62,0 0,-1.264 0,-2.529 0,-3.815 0.206,0 0.395,0 0.611,0 0,0.545 0,1.079 0,1.68 0.096,-0.093 0.146,-0.134 0.186,-0.181 0.352,-0.419 0.717,-0.831 1.046,-1.263 0.149,-0.196 0.316,-0.285 0.59,-0.248 0.067,0.009 0.138,0.001 0.259,0.001 -0.064,0.084 -0.104,0.142 -0.15,0.197 -0.375,0.449 -0.744,0.902 -1.13,1.346 -0.104,0.119 -0.098,0.206 -0.017,0.326 0.427,0.641 0.845,1.285 1.294,1.967 z M 7.615,20.239 c -0.397,0 -0.767,0 -1.167,0 0,0.582 0,1.158 0,1.75 -0.226,0 -0.421,0 -0.637,0 0,-1.297 0,-2.591 0,-3.908 0.209,0 0.399,0 0.618,0 0,0.526 0,1.047 0,1.584 0.404,0 0.779,0 1.182,0 0,-0.526 0,-1.047 0,-1.579 0.224,0 0.419,0 0.633,0 0,1.301 0,2.597 0,3.905 -0.209,0 -0.404,0 -0.629,0 0,-0.585 0,-1.162 0,-1.752 z m 9.544,4.668 c 0.017,0.019 0.003,0.055 0.003,0.084 0,2.16 0,4.322 0,6.484 0,0.062 -0.008,0.127 -0.013,0.203 -0.373,0 -0.733,0 -1.122,0 0,-1.037 0,-2.066 0,-3.127 -0.53,0 -1.032,0 -1.534,0 -0.53,0 -0.53,0 -0.53,0.443 -10e-4,0.805 0,1.606 0,2.412 0,0.084 0,0.17 0,0.27 -0.384,0 -0.743,0 -1.118,0 0,-2.303 0,-4.596 0,-6.901 0.364,0 0.717,0 1.104,0 0,0.942 0,1.872 0,2.821 0.716,0 1.376,0 2.07,0 0,-0.941 0,-1.877 0,-2.826 0.353,0 0.673,-0.005 0.992,0.008 0.053,0.002 0.106,0.079 0.148,0.129 z m 15.304,-0.151 c 0.346,0.015 0.692,0.005 1.055,0.005 0,2.317 0,4.61 0,6.919 -0.418,0 -0.824,0 -1.262,0 0,-1.51 0,-3.021 0,-4.539 -0.703,1.525 -1.4,3.037 -2.097,4.543 -0.38,0 -0.728,0 -1.097,0 0,-2.301 0,-4.602 0,-6.911 0.369,0 0.729,0 1.117,0 0,1.427 0,2.843 0,4.259 0.019,0.002 0.034,0.006 0.053,0.008 0.195,-0.416 0.395,-0.832 0.588,-1.248 0.441,-0.951 0.885,-1.9 1.318,-2.854 0.064,-0.137 0.145,-0.188 0.325,-0.182 z M 1.759,21.998 c 0.212,0.019 0.321,-0.05 0.419,-0.207 0.374,-0.607 0.771,-1.205 1.159,-1.807 0.179,-0.276 0.201,-0.284 0.623,-0.203 0,0.728 0,1.462 0,2.195 0.255,0 0.476,0 0.716,0 0,-0.126 0,-0.232 0,-0.34 0,-1.786 0,-3.573 0,-5.36 0,-0.297 -0.001,-0.296 -0.371,-0.297 -0.341,0 -0.68,0.001 -1.02,0 -0.48,-0.002 -0.878,0.148 -1.205,0.437 -1.123,0.994 -0.828,2.882 0.666,3.285 -0.502,0.754 -1.001,1.506 -1.524,2.294 0.213,0 0.377,-0.011 0.537,0.003 z M 2.574,18.902 C 2.149,18.485 2.028,18.003 2.185,17.474 2.198,17.432 2.219,17.392 2.236,17.352 2.552,16.625 2.969,16.423 3.94,16.544 c 0,0.869 0,1.726 0,2.607 -0.487,-0.005 -0.995,0.116 -1.366,-0.249 z m 17.17,2.516 c -0.38,-0.505 -0.451,-1.063 -0.398,-1.638 0.047,-0.501 0.192,-0.978 0.563,-1.39 0.48,-0.534 1.363,-0.635 2.007,-0.212 -0.087,0.109 -0.167,0.211 -0.245,0.308 -0.027,0.004 -0.045,0.011 -0.06,0.007 -0.78,-0.211 -1.249,-0.021 -1.485,0.617 -0.175,0.467 -0.211,0.949 -0.11,1.428 0.192,0.924 0.924,1.244 1.985,0.89 0.098,0.43 0.042,0.482 -0.459,0.6 -0.71,0.166 -1.4,-0.082 -1.798,-0.61 z m 29.313,3.875 c -0.065,-0.375 -0.381,-0.6 -0.838,-0.605 -0.141,-0.002 -0.281,0.012 -0.418,-0.003 -0.27,-0.028 -0.341,0.062 -0.339,0.276 0.013,1.05 0.009,2.099 0.005,3.146 -0.003,0.549 -0.539,1.113 -1.183,1.256 -2,0.439 -3.998,0.885 -5.999,1.32 -0.225,0.049 -0.462,0.074 -0.691,0.072 -0.1,0 -0.238,-0.076 -0.281,-0.15 -0.028,-0.049 0.06,-0.168 0.129,-0.229 0.091,-0.074 0.207,-0.133 0.326,-0.174 0.367,-0.131 0.74,-0.25 1.111,-0.373 1.485,-0.494 2.973,-0.982 4.456,-1.479 0.669,-0.226 1.03,-0.672 1.041,-1.235 0.034,-1.824 0.017,-3.648 0.009,-5.474 0,-0.289 -0.15,-0.53 -0.494,-0.655 -0.396,-0.142 -0.744,-0.029 -1.088,0.135 -2.102,1.003 -4.203,2.004 -6.306,3.005 -0.619,0.295 -0.964,0.722 -0.961,1.33 0.007,1.725 0.002,3.447 0.004,5.17 0,0.086 0.009,0.174 0.036,0.256 0.207,0.586 0.744,0.922 1.486,0.922 1.479,0.004 2.963,0.002 4.443,0.002 1.475,0 2.945,0.002 4.42,-0.002 0.32,0 0.615,-0.066 0.855,-0.264 0.311,-0.25 0.295,-0.568 0.295,-0.885 10e-4,-1.681 10e-4,-3.359 -0.001,-5.041 0.003,-0.105 0.001,-0.215 -0.017,-0.321 z m -6.15,-0.539 c 0.149,-0.387 0.474,-0.629 0.97,-0.691 0.328,-0.042 0.614,0.161 0.661,0.457 0.071,0.456 -0.499,0.986 -1.062,0.984 -0.469,0 -0.731,-0.329 -0.569,-0.75 z m -21.595,2.502 c -0.444,-0.034 -0.896,-0.006 -1.375,-0.006 0,-0.819 0,-1.647 0,-2.473 -0.34,0 -0.648,0 -0.964,0 0,2.276 0,4.536 0,6.875 0.713,0 1.402,0.041 2.082,-0.011 1.019,-0.076 1.796,-0.481 2.16,-1.312 0.212,-0.482 0.216,-0.984 0.116,-1.488 -0.186,-0.928 -0.892,-1.492 -2.019,-1.585 z m 0.528,2.628 c -0.179,0.76 -0.957,1.118 -1.895,0.896 0,-0.844 -0.004,-1.674 0.008,-2.506 0,-0.055 0.096,-0.145 0.165,-0.158 0.938,-0.199 1.565,0.113 1.728,0.896 0.058,0.281 0.06,0.59 -0.006,0.872 z m 2.525,-5.114 c 1.391,0 2.755,0 4.137,0 0,0.229 0,0.448 0,0.695 -1.029,0 -2.061,0 -3.113,0 0,2.085 0,4.142 0,6.214 -0.35,0 -0.677,0 -1.021,0 -0.003,-2.298 -0.003,-4.595 -0.003,-6.909 z"
         id="path6925"
         inkscape:connector-curvature="0" /></g></g><g
     id="g6930"
     transform="translate(0,-15.97898)" /><g
     id="g6932"
     transform="translate(0,-15.97898)" /><g
     id="g6934"
     transform="translate(0,-15.97898)" /><g
     id="g6936"
     transform="translate(0,-15.97898)" /><g
     id="g6938"
     transform="translate(0,-15.97898)" /><g
     id="g6940"
     transform="translate(0,-15.97898)" /><g
     id="g6942"
     transform="translate(0,-15.97898)" /><g
     id="g6944"
     transform="translate(0,-15.97898)" /><g
     id="g6946"
     transform="translate(0,-15.97898)" /><g
     id="g6948"
     transform="translate(0,-15.97898)" /><g
     id="g6950"
     transform="translate(0,-15.97898)" /><g
     id="g6952"
     transform="translate(0,-15.97898)" /><g
     id="g6954"
     transform="translate(0,-15.97898)" /><g
     id="g6956"
     transform="translate(0,-15.97898)" /><g
     id="g6958"
     transform="translate(0,-15.97898)" /></svg>