<svg xmlns="http://www.w3.org/2000/svg" width="66.8" height="19.5" viewBox="0 0 66.8 19.5" overflow="scroll"><style>.st0{fill:#ff8224}.st1,.st2{fill-rule:evenodd;clip-rule:evenodd;fill:#e53f31}.st2{fill:#393737}</style><path class="st0" d="M65.7 6.1h-1.3V12c0 .7-.7 1.4-1.6 1.7L54.7 16c-.7.2-1.1.2-1.2 0-.1-.3-.1-.6 1.1-1.1l5.8-2.2c1.1-.4 2.6-1 2.6-2.3V.9c0-.6-.6-1.2-1.7-.6l-8.1 4.4c-1.5.8-2.1 1.2-2.2 2.8v8.4c0 .8.8 1.9 1.6 1.9h12.8c.6 0 1.3-.5 1.3-1.1V7.3c.1-.6-.4-1.2-1-1.2zm-7-.2c.4-.6 1.1-.9 1.5-.6.4.2.4.9 0 1.4-.4.6-1.1.9-1.5.6-.4-.1-.4-.8 0-1.4z"/><path class="st1" d="M6 10.2h-.9c-1.4 0-2.8-1-2.8-3.6s1.3-3.7 2.6-3.7H6v7.3zm1.4-8.6H5C2.6 1.6.6 3.4.6 6.9c0 2.1 1 3.6 2.7 4.4L0 17.1c-.1.2 0 .4.2.4h1.5c.1 0 .2-.1.3-.2l3-5.8h1v5.8c0 .1.1.2.2.2h1.3c.1 0 .2-.1.2-.2V1.8c-.1-.2-.2-.2-.3-.2z"/><path class="st2" d="M15.4 6.8h-1.3c-.1 0-.2.1-.2.1v4h-2.5V7c0-.1 0-.1-.1-.1H10c-.1-.1-.2 0-.2.1v10.3c0 .1 0 .2.1.2h1.4c.1 0 .1-.1.1-.2v-4.9h2.5v4.9c0 .1.1.2.2.2h1.3c.1 0 .2-.1.2-.2V7c0-.1-.1-.2-.2-.2zm30.1 10l-.2-.7c0-.1-.1-.1-.1-.1-.1 0-.7.3-1.5.3-1.6 0-2.4-1.6-2.4-4 0-2.2.7-4.3 1.8-4.3.3 0 .6.1 1.2.6.1.1.1.1.2.1s.1-.1.2-.2l.6-.9c0-.1.1-.1.1-.2s-.1-.2-.2-.2c-.9-.5-1.5-.5-2-.5-2 0-3.6 2.4-3.6 6.1 0 3.2 1.5 5 3.6 5 .9 0 1.9-.4 2.2-.7.1-.1.2-.2.1-.3zm-9.2-5.2L38.8 7c0-.1 0-.1-.1-.1h-1.3c-.4 0-.5.1-.6.4l-1.9 4c-.1.2-.2.4-.3.5V7c0-.1 0-.1-.1-.1h-1.4c0-.1-.1 0-.1.1v10.3c0 .1.1.2.1.2h1.4c.1 0 .1-.1.1-.2V12l.2.2 2.4 5c.1.3.3.3.6.3h1.4c.1 0 .1-.1.1-.2l-3-5.7zm-14.5 4.5h-3.1c1.1-1.9 1.5-3.9 1.7-6.5 0-.6.1-1.1.1-1.5h1.4v8zm2.3 0h-.3c-.3 0-.4-.1-.4-.4V7c0-.1 0-.1-.1-.1h-4.2c-.1 0-.2.1-.2.1v.8c0 2.6-.2 5.9-1.5 8.4h-.5c-.1 0-.2.1-.2.2v3.1c0 .1.1.1.2.1h1c.3 0 .3-.2.3-.3v-1.7h4.6v1.9c0 .1.1.1.2.1h1c.1 0 .3-.1.3-.3v-2.9c0-.2-.1-.3-.2-.3zm4.1-4.9c-.5 0-1.3.1-1.3.1v-.7c.2-1.8.6-2.7 1.4-2.7.7 0 1.1.9 1.2 2.6v.7h-1.3zm.2-4.6c-2.3 0-3.3 2.9-3.3 6 0 3.2 1.5 5.1 3.6 5.1 1 0 2-.4 2.4-.7.1-.1.1-.1.1-.2l-.2-.7c0-.1 0-.1-.1-.1s-.7.3-1.6.3c-1.6 0-2.4-1.4-2.4-3.3v-.5s.8.1 1.3.1h3.1v-.9c0-3.3-1.2-5.1-2.9-5.1z"/></svg>