<?xml version="1.0" encoding="UTF-8" standalone="no"?>
<!-- Generator: Adobe Illustrator 17.1.0, SVG Export Plug-In . SVG Version: 6.00 Build 0)  -->

<svg
   xmlns:dc="http://purl.org/dc/elements/1.1/"
   xmlns:cc="http://creativecommons.org/ns#"
   xmlns:rdf="http://www.w3.org/1999/02/22-rdf-syntax-ns#"
   xmlns:svg="http://www.w3.org/2000/svg"
   xmlns="http://www.w3.org/2000/svg"
   xmlns:sodipodi="http://sodipodi.sourceforge.net/DTD/sodipodi-0.dtd"
   xmlns:inkscape="http://www.inkscape.org/namespaces/inkscape"
   version="1.1"
   id="Слой_1"
   x="0px"
   y="0px"
   viewBox="0 0 428.10703 403.59999"
   enable-background="new 0 0 595.3 841.9"
   xml:space="preserve"
   sodipodi:docname="0ruble.svg"
   width="428.10703"
   height="403.60001"
   inkscape:version="0.92.1 r15371"><metadata
     id="metadata6771"><rdf:RDF><cc:Work
         rdf:about=""><dc:format>image/svg+xml</dc:format><dc:type
           rdf:resource="http://purl.org/dc/dcmitype/StillImage" /></cc:Work></rdf:RDF></metadata><defs
     id="defs6769" /><sodipodi:namedview
     pagecolor="#ffffff"
     bordercolor="#666666"
     borderopacity="1"
     objecttolerance="10"
     gridtolerance="10"
     guidetolerance="10"
     inkscape:pageopacity="0"
     inkscape:pageshadow="2"
     inkscape:window-width="640"
     inkscape:window-height="480"
     id="namedview6767"
     showgrid="false"
     fit-margin-top="0"
     fit-margin-left="0"
     fit-margin-right="0"
     fit-margin-bottom="0"
     inkscape:pagecheckerboard="true"
     inkscape:zoom="0.28031832"
     inkscape:cx="215.04999"
     inkscape:cy="202.74999"
     inkscape:window-x="455"
     inkscape:window-y="126"
     inkscape:window-maximized="0"
     inkscape:current-layer="Слой_1" /><path
     d="m 423.7,235.9 c -7.2,-9.5 -14.4,-13.8 -23.6,-13.8 -8.6,0 -19.4,3.7 -36,12.4 l -60.8,37.4 c -6.2,3.6 -20.4,5.8 -40.2,6 1.8,-6.4 -0.2,-13.9 -5.9,-22.2 -11.8,-17 -31.6,-27.2 -52.8,-27.2 h -27.5 c -14.7,0 -28.1,-4.2 -38.7,-12.2 -7.3,-5.5 -16.2,-8.2 -26.5,-8.2 -20.1,0 -41.6,10.3 -57.2,19.8 V 215.1 H 0 v 188.5 h 54.4 v -21.2 h 89.2 c 9.6,0 19.6,-0.7 29.2,-1.3 4.6,-0.3 9.4,-0.6 13.9,-0.8 h 0.1 l 91.7,-14.1 c 3.9,0 7.7,-0.8 10.2,-1.5 8.5,-1.4 16.7,-5.6 24.4,-12.5 l 106.5,-84.7 c 9.5,-7.7 11.3,-21.9 4.1,-31.6 z M 19.1,384.6 V 234.3 h 16.2 v 150.3 z m 226,-109.4 c -0.9,1.2 -4.5,3.2 -17.6,4.3 H 223 c -1.2,-0.5 -2.5,-0.7 -3.9,-0.7 h -68.4 c -23.3,0 -37.8,11.8 -37.8,30.7 0,5.6 3.9,9.5 9.6,9.5 5.7,0 9.6,-3.9 9.6,-9.5 0,-3.5 0,-11.6 18.7,-11.6 h 65.9 v 0.7 H 232 c 6.5,0.1 12.2,0.2 17.3,0.2 32.6,0 52.5,-2.8 64.3,-9 l 60.7,-37.4 c 13.6,-6.8 21.8,-9.8 26.6,-9.8 3.9,0 5.4,2 8.2,6.2 0.7,1 0.9,3.8 -0.9,5.1 l -107.2,83.3 -0.9,0.9 -0.1,0.1 c -3.7,4.3 -8.8,7 -14.6,7.6 l -0.3,0.1 c -2.5,0.6 -4.4,0.6 -7.2,0.6 h -0.2 l -93.4,14.1 c -11.7,1.9 -25.3,2.8 -40.5,2.8 H 54.4 V 250.8 c 7.6,-5.2 34.9,-23.1 56.6,-23.1 6.3,0 11.6,1.6 15.6,4.8 14.2,10.5 31.6,16 50.2,16 h 27.5 c 15.8,0 29.7,7.1 38.1,19.4 2.3,3.3 2.8,6.4 2.7,7.3 z"
     id="path6756"
     inkscape:connector-curvature="0"
     style="fill:#d1688f" /><path
     d="M 99.7,0 V 201.1 H 370.8 V 0 Z M 351.6,19.2 V 181.9 H 118.9 V 19.2 Z"
     id="path6758"
     inkscape:connector-curvature="0"
     style="fill:#d1688f" /><g
     id="g6764"
     transform="translate(-82.6,-220.1)"><path
       d="m 410.8,279.9 c -2.6,-5.2 -6,-9.3 -10.2,-12.2 -4.2,-2.9 -9.4,-4.8 -15.4,-5.8 -4.3,-0.8 -10.2,-1.1 -18.2,-1.1 h -46.5 v 83 h -7.2 v 18.8 h 7.2 v 19.7 h 20.4 v -19.7 h 38.6 v -18.8 h -38.6 v -9 h 27.4 c 17.2,0 29.3,-3.7 36.1,-11.1 6.7,-7.3 10.1,-16.3 10.1,-26.8 0.1,-6.2 -1.2,-11.9 -3.7,-17 z m -22.6,31.2 c -3.7,3.3 -10.3,4.9 -19.6,4.9 H 341 v -36.7 h 27.3 c 8.3,0 12,0.5 13.7,1 3.5,1 6.2,2.9 8.4,5.9 2.2,3.1 3.2,6.7 3.2,11.1 0,6.1 -1.8,10.6 -5.4,13.8 z"
       id="path6760"
       inkscape:connector-curvature="0"
       style="fill:#734b97" /><path
       d="m 297.5,274.2 c -3.3,-5 -7.4,-8.9 -12.4,-11.6 -5,-2.7 -10.8,-4 -17.4,-4 -8.9,0 -16.4,2.4 -22.3,7.2 -5.8,4.7 -10.3,11.6 -13.2,20.3 -2.9,8.5 -4.3,19.8 -4.3,33.5 0,22 4,38.2 11.9,48.2 6.7,8.4 16.1,12.7 27.9,12.7 8.9,0 16.5,-2.5 22.4,-7.3 5.8,-4.8 10.3,-11.6 13.2,-20.3 2.8,-8.5 4.3,-19.8 4.3,-33.4 0,-11.6 -0.9,-20.9 -2.7,-27.7 -1.8,-6.7 -4.3,-12.7 -7.4,-17.6 z m -9.4,45.5 c 0,18.2 -2.1,30.4 -6.1,36.1 -4,5.6 -8.6,8.3 -14.3,8.3 -5.7,0 -10.3,-2.7 -14.3,-8.2 -4.1,-5.7 -6.1,-17.9 -6.1,-36.1 0,-18.2 2.3,-30.8 6.8,-37.2 3.4,-4.8 7.8,-7.2 13.5,-7.2 5.8,0 10.5,2.7 14.4,8.3 4,5.6 6.1,17.7 6.1,36 z"
       id="path6762"
       inkscape:connector-curvature="0"
       style="fill:#734b97" /></g></svg>