<?xml version="1.0" encoding="UTF-8" standalone="no"?>
<!-- Generator: Adobe Illustrator 17.1.0, SVG Export Plug-In . SVG Version: 6.00 Build 0)  -->

<svg
   xmlns:dc="http://purl.org/dc/elements/1.1/"
   xmlns:cc="http://creativecommons.org/ns#"
   xmlns:rdf="http://www.w3.org/1999/02/22-rdf-syntax-ns#"
   xmlns:svg="http://www.w3.org/2000/svg"
   xmlns="http://www.w3.org/2000/svg"
   xmlns:sodipodi="http://sodipodi.sourceforge.net/DTD/sodipodi-0.dtd"
   xmlns:inkscape="http://www.inkscape.org/namespaces/inkscape"
   version="1.1"
   id="Capa_1"
   x="0px"
   y="0px"
   viewBox="0 0 439.10001 459.10001"
   enable-background="new 0 0 512 512"
   xml:space="preserve"
   sodipodi:docname="bag.svg"
   width="439.10001"
   height="459.10001"
   inkscape:version="0.92.1 r15371"><metadata
     id="metadata7371"><rdf:RDF><cc:Work
         rdf:about=""><dc:format>image/svg+xml</dc:format><dc:type
           rdf:resource="http://purl.org/dc/dcmitype/StillImage" /><dc:title></dc:title></cc:Work></rdf:RDF></metadata><defs
     id="defs7369" /><sodipodi:namedview
     pagecolor="#ffffff"
     bordercolor="#666666"
     borderopacity="1"
     objecttolerance="10"
     gridtolerance="10"
     guidetolerance="10"
     inkscape:pageopacity="0"
     inkscape:pageshadow="2"
     inkscape:window-width="640"
     inkscape:window-height="480"
     id="namedview7367"
     showgrid="false"
     fit-margin-top="0"
     fit-margin-left="0"
     fit-margin-right="0"
     fit-margin-bottom="0"
     inkscape:pagecheckerboard="true"
     inkscape:zoom="0.4609375"
     inkscape:cx="212.5"
     inkscape:cy="194.1"
     inkscape:window-x="328"
     inkscape:window-y="96"
     inkscape:window-maximized="0"
     inkscape:current-layer="Capa_1" />
     <path
     d="m 262.4,301.8 -29.7,28.4 V 210.7 c 0,-7 -6,-12.7 -13.3,-12.7 -7.3,0 -13.3,5.7 -13.3,12.7 v 119.5 l -29.7,-28.4 c -5.2,-5 -13.6,-5 -18.8,0 -5.2,5 -5.2,13 0,18 l 52.2,50 c 2.5,2.4 6,3.7 9.4,3.7 3.4,0 6.7,-1.3 9.4,-3.7 L 281,319.6 c 5.2,-5 5.2,-13 0,-18 -5,-4.8 -13.4,-4.8 -18.6,0.2 z"
     id="path7362"
     class="path"
     inkscape:connector-curvature="0"
     style="fill:#933ec5" />
     <path
     d="m 408.3,117.1 c -0.9,-9.7 -9.1,-16.9 -19.2,-16.9 h -59 C 326.6,44.4 278.3,0 219.5,0 160.7,0 112.4,44.4 109,100.2 H 50 c -10,0 -18.3,7.3 -19.2,16.9 L 0,384.1 v 1.9 c 0,40.3 38.2,73.1 85.1,73.1 H 354 c 46.9,0 85.1,-32.8 85.1,-73.1 v -1.5 z M 219.5,37.4 c 37.5,0 68.5,27.6 71.8,62.7 H 147.7 C 151,65.1 182,37.4 219.5,37.4 Z m -91.4,157.5 c 10.6,0 19.3,-8.4 19.3,-18.7 v -38.6 h 144.2 v 38.6 c 0,10.3 8.6,18.7 19.3,18.7 10.7,0 19.3,-8.4 19.3,-18.7 v -38.6 h 41.3 l 29,249.1 C 400,405.9 379.2,421.4 354,421.4 H 85.1 c -25.2,0 -46,-15.6 -46.5,-34.8 l 29,-249 h 41.3 v 38.6 c -0.1,10.3 8.6,18.7 19.2,18.7 z"
     id="path7364"
     class="path"
     inkscape:connector-curvature="0"
     style="fill:#933ec5" /></svg>