<?xml version="1.0" encoding="UTF-8"?>
<!DOCTYPE svg PUBLIC "-//W3C//DTD SVG 1.1//EN" "http://www.w3.org/Graphics/SVG/1.1/DTD/svg11.dtd">
<!-- Creator: CorelDRAW X7 -->
<?xml-stylesheet href="belarus.css" type="text/css"?>
<svg xmlns="http://www.w3.org/2000/svg" xml:space="preserve" width="58.775mm" height="7.9463mm" version="1.1" style="shape-rendering:geometricPrecision; text-rendering:geometricPrecision; image-rendering:optimizeQuality; fill-rule:evenodd; clip-rule:evenodd"
viewBox="0 0 5542 749"
 xmlns:xlink="http://www.w3.org/1999/xlink">
 <g id="Слой_x0020_1">
  <metadata id="CorelCorpID_0Corel-Layer"/>
  <path class="fil0" d="M5291 749c-201,0 -258,-94 -264,-105 -12,-23 -4,-51 18,-63 23,-12 50,-4 62,17 2,2 11,15 36,28 46,25 106,31 148,31 61,0 107,-13 133,-37 20,-19 25,-42 25,-58 0,-34 -10,-60 -32,-81 -29,-29 -79,-50 -149,-64 -51,-11 -96,-29 -131,-53 -30,-20 -53,-45 -69,-75 -27,-46 -27,-88 -27,-99 0,-49 23,-98 63,-134 19,-17 43,-31 70,-41 28,-10 58,-15 90,-15 180,0 233,85 239,95 12,23 4,51 -18,63 -22,12 -50,5 -62,-16 -2,-2 -10,-12 -30,-24 -23,-11 -62,-25 -129,-25 -51,0 -82,17 -99,33 -20,18 -32,42 -32,66l0 2c0,3 0,26 17,53 10,17 24,31 43,43 24,16 55,28 93,36 89,18 153,46 195,88 40,39 61,89 61,148 0,48 -20,93 -55,126 -43,41 -110,61 -196,61z"/>
  <path class="fil0" d="M4568 749c-68,0 -126,-14 -174,-41 -40,-24 -72,-56 -95,-98 -38,-70 -38,-143 -38,-167l0 -387c0,-25 21,-46 46,-46 26,0 47,21 47,46l0 387c0,18 0,74 26,123 15,27 35,47 61,62 32,18 75,29 127,29 51,0 94,-11 126,-29 25,-15 46,-35 60,-61 27,-50 27,-106 27,-124l0 -387c0,-25 21,-46 46,-46 26,0 46,21 46,46l0 387c0,24 0,98 -38,167 -34,64 -108,139 -267,139z"/>
  <path class="fil0" d="M3564 738c-26,0 -47,-21 -47,-46l0 -636c0,-25 21,-46 47,-46l275 0c3,0 26,0 54,8 41,10 77,30 104,57 21,20 37,45 48,74 13,32 19,68 19,108 0,87 -37,154 -107,194 -16,9 -35,18 -55,23 40,34 76,78 104,129 24,41 50,41 54,41 25,-3 48,14 52,39 4,25 -14,49 -39,52 -6,1 -28,3 -56,-6 -25,-9 -62,-30 -90,-80 -33,-55 -73,-99 -119,-129 -32,-21 -56,-27 -58,-27 -24,-5 -40,-26 -37,-50 2,-24 22,-42 46,-42 66,0 117,-10 153,-31 41,-23 59,-59 59,-113 0,-38 -6,-68 -20,-92 -10,-18 -24,-32 -43,-43 -32,-18 -67,-19 -69,-19l-229 0 0 589c0,25 -20,46 -46,46z"/>
  <path class="fil1" d="M3054 162l-186 384c9,-4 17,-9 26,-13 62,-34 125,-56 185,-67 42,-8 82,-10 121,-7l-146 -297zm-308 576c-9,0 -19,-3 -28,-9 -17,-13 -24,-37 -14,-58l309 -635c8,-16 24,-26 41,-26 18,0 35,10 42,26l310 635c11,22 2,50 -21,61 -23,12 -51,1 -62,-21l-72 -149c-49,-14 -99,-16 -154,-5 -51,9 -104,27 -158,56 -95,50 -161,111 -161,112 -9,8 -21,13 -32,13z"/>
  <path class="fil1" d="M2510 738l-404 0c-25,0 -46,-20 -46,-46l0 -636c0,-25 21,-46 46,-46 26,0 46,21 46,46l0 590 358 0c26,0 46,20 46,46 0,26 -20,46 -46,46z"/>
  <path class="fil1" d="M1865 738l-404 0c-25,0 -46,-20 -46,-46l0 -636c0,-25 21,-46 46,-46 26,0 47,21 47,46l0 590 357 0c26,0 46,20 46,46 0,26 -20,46 -46,46z"/>
  <path class="fil1" d="M1221 645l-397 0 0 -226 343 0c26,0 46,-21 46,-47 0,-25 -20,-46 -46,-46l-343 0 0 -223 387 0c26,0 47,-21 47,-47 0,-25 -21,-46 -47,-46l-433 0c-25,0 -46,21 -46,46l0 635c0,26 21,46 46,46l443 0c26,0 46,-20 46,-46 0,-26 -20,-46 -46,-46z"/>
  <path class="fil1" d="M490 545c-4,39 -17,66 -42,81 -18,12 -45,19 -77,19l-278 0 0 -542 236 0c78,0 113,25 120,85 5,39 -2,70 -18,92 -25,29 -65,36 -74,37l-151 1c-25,0 -47,20 -47,46 1,25 22,46 47,46l1 0 153 -1 3 0c1,0 17,-1 37,3 19,4 45,12 64,31 21,22 31,56 26,102zm83 -94c-9,-29 -24,-53 -44,-73 -11,-11 -23,-21 -36,-29 2,-4 5,-6 9,-10 15,-20 27,-44 34,-69 7,-28 9,-59 4,-93 -10,-86 -58,-126 -96,-145 -41,-20 -86,-22 -115,-22l-283 0c-25,0 -46,21 -46,46l0 635c0,13 6,24 14,33 8,9 20,13 32,13l325 0c50,0 92,-11 126,-32 24,-15 43,-34 58,-59 15,-26 24,-57 28,-93 2,-38 -1,-72 -10,-102z"/>
 </g>
</svg>
