<?xml version="1.0" encoding="UTF-8" standalone="no"?>
<!-- Generator: Adobe Illustrator 17.1.0, SVG Export Plug-In . SVG Version: 6.00 Build 0)  -->

<svg
   xmlns:dc="http://purl.org/dc/elements/1.1/"
   xmlns:cc="http://creativecommons.org/ns#"
   xmlns:rdf="http://www.w3.org/1999/02/22-rdf-syntax-ns#"
   xmlns:svg="http://www.w3.org/2000/svg"
   xmlns="http://www.w3.org/2000/svg"
   xmlns:sodipodi="http://sodipodi.sourceforge.net/DTD/sodipodi-0.dtd"
   xmlns:inkscape="http://www.inkscape.org/namespaces/inkscape"
   version="1.1"
   id="Layer_1"
   x="0px"
   y="0px"
   viewBox="0 0 598.3 598.29997"
   enable-background="new 0 0 595.3 841.9"
   xml:space="preserve"
   sodipodi:docname="delivery.svg"
   width="598.29999"
   height="598.29999"
   inkscape:version="0.92.1 r15371"><metadata
     id="metadata4620"><rdf:RDF><cc:Work
         rdf:about=""><dc:format>image/svg+xml</dc:format><dc:type
           rdf:resource="http://purl.org/dc/dcmitype/StillImage" /></cc:Work></rdf:RDF></metadata><defs
     id="defs4618" /><sodipodi:namedview
     pagecolor="#ffffff"
     bordercolor="#666666"
     borderopacity="1"
     objecttolerance="10"
     gridtolerance="10"
     guidetolerance="10"
     inkscape:pageopacity="0"
     inkscape:pageshadow="2"
     inkscape:window-width="1301"
     inkscape:window-height="744"
     id="namedview4616"
     showgrid="false"
     fit-margin-top="0"
     fit-margin-left="0"
     fit-margin-right="0"
     fit-margin-bottom="0"
     inkscape:pagecheckerboard="true"
     inkscape:zoom="0.79285994"
     inkscape:cx="123.83623"
     inkscape:cy="276.33924"
     inkscape:window-x="65"
     inkscape:window-y="24"
     inkscape:window-maximized="1"
     inkscape:current-layer="Layer_1" /><g
     id="g4613"
     transform="translate(1.5,-121.7)"
     style="fill:#d1688f;fill-opacity:1;opacity:1"><path
       d="m 347,419.4 c 5.8,-13.3 9,-27.4 9.6,-42 24.9,-26.5 38.6,-61 38.6,-97.2 v -41.7 c 0,-24.5 -18.1,-45.4 -42.2,-49 -10,-20.2 -25.4,-37.2 -44.5,-49.2 -19.4,-12.1 -41.8,-18.6 -64.7,-18.6 h -16.2 c -31.6,0 -62.7,10.7 -87.6,30.1 -35,27.2 -55.1,68.3 -55.1,112.6 v 15.8 c 0,36.2 13.7,70.7 38.6,97.2 1.4,35.8 18.8,68.4 47.8,89.6 v 21.8 l -73.9,16.4 c -58.2,13 -98.9,63.7 -98.9,123.3 V 720 H 596.8 V 419.4 Z m 96.2,96.1 v -73.8 h 35.4 v 73.8 z m 57.6,22.2 v -96 h 73.8 V 697.9 H 347.1 V 441.6 H 421 v 96 h 79.8 z m -166.9,-271.9 -3.6,1.4 c -61.3,24.5 -125.9,37 -192,37 h -15 v 36.1 c -10.6,-18.2 -16.2,-38.9 -16.2,-60.2 v -15.8 c 0,-37.4 16.9,-72.1 46.5,-95.1 21,-16.4 47.3,-25.4 74,-25.4 h 16.2 c 40,0 76,23.7 91.7,60.5 l 2.9,6.7 h 7.3 c 15.1,0 27.3,12.2 27.3,27.3 V 280 c 0,21.2 -5.6,41.9 -16.2,60.2 v -74.6 h -22.9 z m -9,187 v 39.7 l -16.2,-3.6 v -21.8 c 5.9,-4.3 11.3,-9.1 16.2,-14.3 z M 123.3,522.3 V 659.5 H 94.5 v 38.4 H 20.7 v -69.3 c 0,-49.2 33.5,-91 81.5,-101.6 z M 240,467.5 c -52.1,0 -94.5,-42.4 -94.5,-94.5 v -46.6 c 64.9,-0.8 128.5,-13.3 189,-36.9 V 373 c 0,52.1 -42.4,94.5 -94.5,94.5 z m 46.5,90.3 v 101.6 h -93 V 557.8 c 12.7,11.8 29.1,18.2 46.5,18.2 17.4,0 33.8,-6.4 46.5,-18.2 z M 240,553.9 c -25.6,0 -46.5,-20.9 -46.5,-46.5 v -27.5 c 14.8,6.5 30.5,9.8 46.5,9.8 16,0 31.7,-3.3 46.5,-9.8 v 27.5 c 0,25.6 -20.8,46.5 -46.5,46.5 z M 116.7,681.7 h 28.8 V 517.3 l 25.8,-5.7 V 681.7 H 308.7 V 511.6 l 16.2,3.6 V 697.9 H 116.7 Z"
       id="path4605"
       inkscape:connector-curvature="0"
       style="fill:#d1688f;fill-opacity:1" /><rect
       x="536.20001"
       y="659.5"
       width="22.200001"
       height="22.200001"
       id="rect4607"
       style="fill:#d1688f;fill-opacity:1" /><rect
       x="459.39999"
       y="659.5"
       width="60.599998"
       height="22.200001"
       id="rect4609"
       style="fill:#d1688f;fill-opacity:1" /><rect
       x="459.39999"
       y="621.09998"
       width="99"
       height="22.200001"
       id="rect4611"
       style="fill:#d1688f;fill-opacity:1" /></g></svg>