<?xml version="1.0" encoding="UTF-8" standalone="no"?>
<!-- Generator: Adobe Illustrator 17.1.0, SVG Export Plug-In . SVG Version: 6.00 Build 0)  -->

<svg
   xmlns:dc="http://purl.org/dc/elements/1.1/"
   xmlns:cc="http://creativecommons.org/ns#"
   xmlns:rdf="http://www.w3.org/1999/02/22-rdf-syntax-ns#"
   xmlns:svg="http://www.w3.org/2000/svg"
   xmlns="http://www.w3.org/2000/svg"
   xmlns:sodipodi="http://sodipodi.sourceforge.net/DTD/sodipodi-0.dtd"
   xmlns:inkscape="http://www.inkscape.org/namespaces/inkscape"
   version="1.1"
   id="Capa_1"
   x="0px"
   y="0px"
   viewBox="0 0 302.90082 267.70001"
   enable-background="new 0 0 512 512"
   xml:space="preserve"
   sodipodi:docname="heart.svg"
   width="302.90082"
   height="267.70001"
   inkscape:version="0.92.1 r15371"><metadata
     id="metadata64"><rdf:RDF><cc:Work
         rdf:about=""><dc:format>image/svg+xml</dc:format><dc:type
           rdf:resource="http://purl.org/dc/dcmitype/StillImage" /><dc:title></dc:title></cc:Work></rdf:RDF></metadata><defs
     id="defs62" /><sodipodi:namedview
     pagecolor="#ffffff"
     bordercolor="#666666"
     borderopacity="1"
     objecttolerance="10"
     gridtolerance="10"
     guidetolerance="10"
     inkscape:pageopacity="0"
     inkscape:pageshadow="2"
     inkscape:window-width="640"
     inkscape:window-height="480"
     id="namedview60"
     showgrid="false"
     fit-margin-top="0"
     fit-margin-left="0"
     fit-margin-right="0"
     fit-margin-bottom="0"
     inkscape:pagecheckerboard="true"
     inkscape:zoom="0.4609375"
     inkscape:cx="151.20082"
     inkscape:cy="150.4"
     inkscape:window-x="75"
     inkscape:window-y="34"
     inkscape:window-maximized="0"
     inkscape:current-layer="Capa_1" /><path
     d="m 216.20082,0 c -23.2,0 -44.9,9 -61.3,25.4 l -3.6,3.6 -3.6,-3.6 C 131.30082,9 109.50082,0 86.400824,0 c -23.1,0 -44.8,9 -61.1,25.3 C 8.9008245,41.7 -0.09917554,63.5 8.2445803e-4,86.5 c 0,23.2 9.10000004197,44.8 25.39999954197,61.2 L 141.10082,263.4 c 2.8,2.8 6.5,4.3 10.2,4.3 3.6,0 7.4,-1.4 10.2,-4.2 l 116,-115.6 c 16.4,-16.4 25.4,-38.2 25.4,-61.2 0,-23.2 -9,-44.9 -25.3,-61.3 -16.6,-16.3 -38.4,-25.4 -61.4,-25.4 z m 40.6,127.5 -105.7,105.3 L 45.600824,127.3 c -10.9,-10.9 -16.9,-25.4 -16.9,-40.9 0,-15.5 6,-29.9 16.8,-40.7 10.8,-10.8 25.3,-16.8 40.7,-16.8 15.399996,0 29.899996,6 40.899996,16.9 l 13.9,13.9 c 5.7,5.7 14.8,5.7 20.5,0 l 13.8,-13.8 c 10.9,-10.9 25.4,-16.9 40.9,-16.9 15.3,0 29.8,6 40.7,16.9 10.9,10.9 16.9,25.4 16.8,40.7 0,15.5 -6,30 -16.9,40.9 z"
     id="path57"
     inkscape:connector-curvature="0"
     style="fill:#933ec5" /></svg>