<?xml version="1.0" encoding="UTF-8" standalone="no"?>
<!-- Generator: Adobe Illustrator 17.1.0, SVG Export Plug-In . SVG Version: 6.00 Build 0)  -->

<svg
   xmlns:dc="http://purl.org/dc/elements/1.1/"
   xmlns:cc="http://creativecommons.org/ns#"
   xmlns:rdf="http://www.w3.org/1999/02/22-rdf-syntax-ns#"
   xmlns:svg="http://www.w3.org/2000/svg"
   xmlns="http://www.w3.org/2000/svg"
   xmlns:sodipodi="http://sodipodi.sourceforge.net/DTD/sodipodi-0.dtd"
   xmlns:inkscape="http://www.inkscape.org/namespaces/inkscape"
   version="1.1"
   id="Layer_1"
   x="0px"
   y="0px"
   viewBox="0 0 511.98709 464.55313"
   enable-background="new 0 0 512 512"
   xml:space="preserve"
   sodipodi:docname="key.svg"
   width="511.98709"
   height="464.55313"
   inkscape:version="0.92.1 r15371"><metadata
     id="metadata6699"><rdf:RDF><cc:Work
         rdf:about=""><dc:format>image/svg+xml</dc:format><dc:type
           rdf:resource="http://purl.org/dc/dcmitype/StillImage" /><dc:title></dc:title></cc:Work></rdf:RDF></metadata><defs
     id="defs6697" /><sodipodi:namedview
     pagecolor="#ffffff"
     bordercolor="#666666"
     borderopacity="1"
     objecttolerance="10"
     gridtolerance="10"
     guidetolerance="10"
     inkscape:pageopacity="0"
     inkscape:pageshadow="2"
     inkscape:window-width="1301"
     inkscape:window-height="744"
     id="namedview6695"
     showgrid="false"
     fit-margin-top="0"
     fit-margin-left="0"
     fit-margin-right="0"
     fit-margin-bottom="0"
     inkscape:pagecheckerboard="true"
     inkscape:zoom="0.4609375"
     inkscape:cx="255.975"
     inkscape:cy="232.31257"
     inkscape:window-x="65"
     inkscape:window-y="24"
     inkscape:window-maximized="1"
     inkscape:current-layer="Layer_1" /><g
     id="g6692"
     transform="translate(-0.025,-23.759433)"><g
       id="g6690"><path
         d="M 491.9,119.1 C 477,104.2 457.5,97.9 435.3,100.5 438,78.3 431.6,58.8 416.7,43.9 388,15.2 343.6,18.1 315.1,46.7 279.5,82.4 292.8,134 299.4,212.6 l -117,117 -59.2,-59.2 c -6.5,-6.5 -17.1,-6.5 -23.7,0 L 4.9,365 c -6.5,6.5 -6.5,17.1 0,23.7 l 59.2,59.2 -11.8,11.8 c -6.5,6.5 -6.5,17.1 0,23.7 6.5,6.6 17.1,6.5 23.7,0 l 247,-247 c 78.6,6.6 130.5,20.1 166.2,-15.6 28.5,-28.8 31.3,-73.1 2.7,-101.7 z M 87.7,424.2 40.4,376.9 64.1,353.2 75.9,365 c 6.5,6.5 17.1,6.5 23.7,0 6.5,-6.5 6.5,-17.1 0,-23.7 l -11.8,-11.8 23.7,-23.7 47.3,47.3 z M 465.4,197 c -22,22 -60.6,13 -133.2,6.5 -6.5,-72.6 -15.4,-111.3 6.5,-133.2 13.8,-13.8 37.5,-19.5 54.3,-2.8 19.1,19.1 3.3,48.5 2.6,49.8 -3.6,6.5 -2.5,14.7 2.8,20 5.3,5.3 13.5,6.5 20,2.8 1.2,-0.7 30.8,-16.5 49.8,2.6 16.7,16.8 11.1,40.5 -2.8,54.3 z"
         id="path6688"
         inkscape:connector-curvature="0"
         style="fill:#d80027" /></g></g></svg>